<svg width="51" height="51" viewBox="0 0 51 51" fill="none" xmlns="http://www.w3.org/2000/svg">
<path d="M0 0H51V51H20C8.9543 51 0 42.0457 0 31V0Z" fill="#4F46E5"/>
<path fill-rule="evenodd" clip-rule="evenodd" d="M26 13.8125C19.2687 13.8125 13.8125 19.2687 13.8125 26C13.8125 32.7313 19.2687 38.1875 26 38.1875C32.7313 38.1875 38.1875 32.7313 38.1875 26C38.1875 19.2687 32.7313 13.8125 26 13.8125ZM26.9375 18.5C26.9375 18.2514 26.8387 18.0129 26.6629 17.8371C26.4871 17.6613 26.2486 17.5625 26 17.5625C25.7514 17.5625 25.5129 17.6613 25.3371 17.8371C25.1613 18.0129 25.0625 18.2514 25.0625 18.5V26C25.0625 26.5175 25.4825 26.9375 26 26.9375H31.625C31.8736 26.9375 32.1121 26.8387 32.2879 26.6629C32.4637 26.4871 32.5625 26.2486 32.5625 26C32.5625 25.7514 32.4637 25.5129 32.2879 25.3371C32.1121 25.1613 31.8736 25.0625 31.625 25.0625H26.9375V18.5Z" fill="white"/>
</svg>
