<svg width="51" height="51" viewBox="0 0 51 51" fill="none" xmlns="http://www.w3.org/2000/svg">
<path d="M0 0H51V51H20C8.9543 51 0 42.0457 0 31V0Z" fill="#4F46E5"/>
<path d="M25.5563 37.1376L25.5475 37.1338L25.52 37.1188C25.3591 37.0303 25.1995 36.9395 25.0412 36.8463C23.1385 35.7157 21.3603 34.3875 19.7362 32.8838C16.86 30.2001 13.8125 26.2176 13.8125 21.3126C13.8125 17.6526 16.8925 14.7501 20.61 14.7501C21.6434 14.745 22.6647 14.973 23.5979 15.4171C24.5311 15.8612 25.3521 16.5099 26 17.3151C26.648 16.5098 27.4693 15.8609 28.4027 15.4168C29.3361 14.9727 30.3576 14.7448 31.3912 14.7501C35.1075 14.7501 38.1875 17.6526 38.1875 21.3126C38.1875 26.2188 35.14 30.2013 32.2637 32.8826C30.6397 34.3863 28.8615 35.7145 26.9588 36.8451C26.8005 36.9386 26.6409 37.0299 26.48 37.1188L26.4525 37.1338L26.4437 37.1388L26.44 37.1401C26.3045 37.2119 26.1534 37.2494 26 37.2494C25.8466 37.2494 25.6955 37.2119 25.56 37.1401L25.5563 37.1376Z" fill="white"/>
</svg>
