<svg width="236" height="127" viewBox="0 0 236 127" fill="none" xmlns="http://www.w3.org/2000/svg">
<g filter="url(#filter0_d_141_12569)">
<rect x="4" width="228" height="119" rx="5" fill="white"/>
<rect x="4.5" y="0.5" width="227" height="118" rx="4.5" stroke="#F1F5F9"/>
</g>
<path d="M25.0893 65.8143V71.382H24.4368L21.4028 67.0105H21.3484V71.382H20.6742V65.8143H21.3267L24.3716 70.1967H24.4259V65.8143H25.0893ZM28.0478 71.469C27.6708 71.469 27.3401 71.3793 27.0555 71.1999C26.7728 71.0204 26.5517 70.7694 26.3922 70.4468C26.2345 70.1242 26.1557 69.7472 26.1557 69.3159C26.1557 68.8809 26.2345 68.5012 26.3922 68.1768C26.5517 67.8523 26.7728 67.6004 27.0555 67.421C27.3401 67.2415 27.6708 67.1518 28.0478 67.1518C28.4248 67.1518 28.7547 67.2415 29.0374 67.421C29.3219 67.6004 29.5431 67.8523 29.7007 68.1768C29.8602 68.5012 29.94 68.8809 29.94 69.3159C29.94 69.7472 29.8602 70.1242 29.7007 70.4468C29.5431 70.7694 29.3219 71.0204 29.0374 71.1999C28.7547 71.3793 28.4248 71.469 28.0478 71.469ZM28.0478 70.8927C28.3342 70.8927 28.5698 70.8193 28.7547 70.6725C28.9395 70.5257 29.0764 70.3326 29.1652 70.0934C29.254 69.8542 29.2984 69.595 29.2984 69.3159C29.2984 69.0367 29.254 68.7767 29.1652 68.5356C29.0764 68.2946 28.9395 68.0997 28.7547 67.9511C28.5698 67.8025 28.3342 67.7282 28.0478 67.7282C27.7615 67.7282 27.5258 67.8025 27.341 67.9511C27.1561 68.0997 27.0193 68.2946 26.9305 68.5356C26.8417 68.7767 26.7972 69.0367 26.7972 69.3159C26.7972 69.595 26.8417 69.8542 26.9305 70.0934C27.0193 70.3326 27.1561 70.5257 27.341 70.6725C27.5258 70.8193 27.7615 70.8927 28.0478 70.8927ZM30.9194 71.382V67.2062H31.5392V67.8587H31.5936C31.6806 67.6358 31.821 67.4627 32.015 67.3394C32.2089 67.2144 32.4418 67.1518 32.7137 67.1518C32.9891 67.1518 33.2184 67.2144 33.4015 67.3394C33.5863 67.4627 33.7304 67.6358 33.8337 67.8587H33.8772C33.9842 67.643 34.1446 67.4717 34.3584 67.3449C34.5723 67.2162 34.8288 67.1518 35.1278 67.1518C35.5012 67.1518 35.8066 67.2687 36.044 67.5025C36.2814 67.7345 36.4001 68.0961 36.4001 68.5873V71.382H35.7585V68.5873C35.7585 68.2792 35.6742 68.0589 35.5057 67.9266C35.3371 67.7943 35.1387 67.7282 34.9103 67.7282C34.6167 67.7282 34.3892 67.817 34.2279 67.9946C34.0666 68.1704 33.986 68.3933 33.986 68.6634V71.382H33.3335V68.522C33.3335 68.2846 33.2565 68.0934 33.1024 67.9484C32.9484 67.8016 32.7499 67.7282 32.507 67.7282C32.3403 67.7282 32.1844 67.7726 32.0394 67.8614C31.8963 67.9502 31.7803 68.0734 31.6915 68.2311C31.6045 68.387 31.561 68.5673 31.561 68.7721V71.382H30.9194ZM39.324 71.469C38.9216 71.469 38.5746 71.3802 38.2828 71.2026C37.9928 71.0232 37.7689 70.773 37.6113 70.4522C37.4554 70.1296 37.3775 69.7545 37.3775 69.3267C37.3775 68.899 37.4554 68.522 37.6113 68.1958C37.7689 67.8677 37.9883 67.6122 38.2692 67.4291C38.5519 67.2443 38.8818 67.1518 39.2588 67.1518C39.4762 67.1518 39.691 67.1881 39.9031 67.2606C40.1151 67.3331 40.3081 67.4509 40.4821 67.614C40.6561 67.7753 40.7948 67.9892 40.8981 68.2556C41.0014 68.522 41.0531 68.8501 41.0531 69.2397V69.5116H37.8342V68.957H40.4006C40.4006 68.7214 40.3535 68.5111 40.2592 68.3263C40.1668 68.1414 40.0345 67.9955 39.8623 67.8886C39.6919 67.7816 39.4907 67.7282 39.2588 67.7282C39.0032 67.7282 38.7821 67.7916 38.5954 67.9185C38.4105 68.0435 38.2683 68.2067 38.1686 68.4078C38.0689 68.609 38.0191 68.8247 38.0191 69.0549V69.4246C38.0191 69.74 38.0734 70.0073 38.1822 70.2266C38.2927 70.4441 38.4459 70.6099 38.6416 70.7241C38.8374 70.8365 39.0648 70.8927 39.324 70.8927C39.4926 70.8927 39.6448 70.8691 39.7807 70.822C39.9185 70.773 40.0372 70.7005 40.1369 70.6045C40.2366 70.5066 40.3136 70.3852 40.368 70.2402L40.9878 70.4142C40.9226 70.6244 40.8129 70.8093 40.6589 70.9688C40.5048 71.1265 40.3145 71.2497 40.0879 71.3385C39.8614 71.4255 39.6067 71.469 39.324 71.469Z" fill="#64748B"/>
<g filter="url(#filter1_d_141_12569)">
<rect x="20" y="76.1414" width="196" height="22.967" rx="5.10377" fill="white"/>
<path d="M33.5931 84.6292V91.1249H32.8319L29.2923 86.0247H29.2288V91.1249H28.4422V84.6292H29.2034L32.7558 89.742H32.8192V84.6292H33.5931ZM36.9912 91.2264C36.5514 91.2264 36.1655 91.1217 35.8335 90.9124C35.5036 90.703 35.2457 90.4102 35.0596 90.0338C34.8756 89.6574 34.7836 89.2176 34.7836 88.7144C34.7836 88.2069 34.8756 87.7639 35.0596 87.3854C35.2457 87.0069 35.5036 86.713 35.8335 86.5037C36.1655 86.2943 36.5514 86.1897 36.9912 86.1897C37.431 86.1897 37.8158 86.2943 38.1457 86.5037C38.4777 86.713 38.7356 87.0069 38.9196 87.3854C39.1057 87.7639 39.1987 88.2069 39.1987 88.7144C39.1987 89.2176 39.1057 89.6574 38.9196 90.0338C38.7356 90.4102 38.4777 90.703 38.1457 90.9124C37.8158 91.1217 37.431 91.2264 36.9912 91.2264ZM36.9912 90.554C37.3253 90.554 37.6001 90.4683 37.8158 90.2971C38.0315 90.1258 38.1911 89.9006 38.2948 89.6215C38.3984 89.3424 38.4502 89.04 38.4502 88.7144C38.4502 88.3887 38.3984 88.0853 38.2948 87.8041C38.1911 87.5228 38.0315 87.2955 37.8158 87.1222C37.6001 86.9488 37.3253 86.8621 36.9912 86.8621C36.6571 86.8621 36.3822 86.9488 36.1665 87.1222C35.9508 87.2955 35.7912 87.5228 35.6876 87.8041C35.584 88.0853 35.5322 88.3887 35.5322 88.7144C35.5322 89.04 35.584 89.3424 35.6876 89.6215C35.7912 89.9006 35.9508 90.1258 36.1665 90.2971C36.3822 90.4683 36.6571 90.554 36.9912 90.554ZM40.2877 91.1249V86.2531H41.0109V87.0143H41.0743C41.1758 86.7542 41.3397 86.5523 41.5659 86.4085C41.7922 86.2626 42.0639 86.1897 42.3811 86.1897C42.7025 86.1897 42.97 86.2626 43.1835 86.4085C43.3992 86.5523 43.5673 86.7542 43.6878 87.0143H43.7386C43.8633 86.7627 44.0505 86.5629 44.3 86.4149C44.5495 86.2647 44.8487 86.1897 45.1976 86.1897C45.6331 86.1897 45.9894 86.326 46.2664 86.5988C46.5434 86.8695 46.6819 87.2913 46.6819 87.8643V91.1249H45.9334V87.8643C45.9334 87.5049 45.8351 87.248 45.6384 87.0936C45.4418 86.9392 45.2103 86.8621 44.9438 86.8621C44.6013 86.8621 44.3359 86.9657 44.1477 87.1729C43.9595 87.378 43.8654 87.6381 43.8654 87.9531V91.1249H43.1042V87.7882C43.1042 87.5112 43.0144 87.2881 42.8346 87.119C42.6549 86.9477 42.4234 86.8621 42.14 86.8621C41.9455 86.8621 41.7636 86.9139 41.5945 87.0175C41.4274 87.1211 41.2921 87.2649 41.1885 87.4488C41.087 87.6307 41.0363 87.8411 41.0363 88.08V91.1249H40.2877ZM50.0395 91.2264C49.5701 91.2264 49.1652 91.1228 48.8248 90.9155C48.4865 90.7062 48.2253 90.4144 48.0414 90.0401C47.8595 89.6638 47.7686 89.2261 47.7686 88.727C47.7686 88.228 47.8595 87.7882 48.0414 87.4076C48.2253 87.0249 48.4812 86.7267 48.8089 86.5132C49.1388 86.2975 49.5236 86.1897 49.9634 86.1897C50.2172 86.1897 50.4677 86.232 50.7151 86.3165C50.9625 86.4011 51.1877 86.5386 51.3907 86.7289C51.5937 86.917 51.7555 87.1666 51.876 87.4774C51.9965 87.7882 52.0568 88.1709 52.0568 88.6256V88.9427H48.3014V88.2957H51.2955C51.2955 88.0208 51.2406 87.7755 51.1306 87.5599C51.0228 87.3442 50.8684 87.174 50.6675 87.0492C50.4688 86.9244 50.2341 86.8621 49.9634 86.8621C49.6653 86.8621 49.4073 86.9361 49.1895 87.0841C48.9738 87.23 48.8079 87.4203 48.6916 87.655C48.5753 87.8897 48.5171 88.1413 48.5171 88.4099V88.8412C48.5171 89.2092 48.5805 89.521 48.7074 89.7769C48.8364 90.0306 49.0151 90.2241 49.2434 90.3573C49.4718 90.4884 49.7372 90.554 50.0395 90.554C50.2362 90.554 50.4138 90.5265 50.5724 90.4715C50.7331 90.4144 50.8716 90.3298 50.9879 90.2178C51.1042 90.1036 51.1941 89.9619 51.2575 89.7928L51.9806 89.9957C51.9045 90.241 51.7766 90.4567 51.5969 90.6428C51.4171 90.8267 51.1951 90.9705 50.9308 91.0741C50.6665 91.1756 50.3694 91.2264 50.0395 91.2264ZM57.4399 91.2264C57.0339 91.2264 56.6755 91.1238 56.3646 90.9187C56.0538 90.7115 55.8106 90.4197 55.6351 90.0433C55.4596 89.6648 55.3719 89.2176 55.3719 88.7017C55.3719 88.19 55.4596 87.7459 55.6351 87.3695C55.8106 86.9932 56.0549 86.7024 56.3678 86.4973C56.6808 86.2922 57.0423 86.1897 57.4525 86.1897C57.7697 86.1897 58.0203 86.2425 58.2042 86.3482C58.3903 86.4519 58.532 86.5703 58.6293 86.7035C58.7286 86.8346 58.8058 86.9424 58.8608 87.027H58.9242V84.6292H59.6728V91.1249H58.9496V90.3763H58.8608C58.8058 90.4652 58.7276 90.5772 58.6261 90.7126C58.5246 90.8458 58.3797 90.9652 58.1916 91.071C58.0034 91.1746 57.7528 91.2264 57.4399 91.2264ZM57.5413 90.554C57.8416 90.554 58.0953 90.4757 58.3026 90.3193C58.5098 90.1607 58.6673 89.9418 58.7752 89.6627C58.883 89.3815 58.9369 89.0569 58.9369 88.689C58.9369 88.3253 58.884 88.0071 58.7783 87.7343C58.6726 87.4594 58.5161 87.2458 58.3089 87.0936C58.1017 86.9392 57.8458 86.8621 57.5413 86.8621C57.2242 86.8621 56.9599 86.9435 56.7484 87.1063C56.5391 87.267 56.3816 87.4858 56.2758 87.7628C56.1722 88.0377 56.1204 88.3464 56.1204 88.689C56.1204 89.0358 56.1733 89.3508 56.279 89.6342C56.3868 89.9154 56.5454 90.1395 56.7548 90.3066C56.9662 90.4715 57.2284 90.554 57.5413 90.554ZM63.1366 91.2264C62.6672 91.2264 62.2623 91.1228 61.9218 90.9155C61.5835 90.7062 61.3224 90.4144 61.1384 90.0401C60.9566 89.6638 60.8657 89.2261 60.8657 88.727C60.8657 88.228 60.9566 87.7882 61.1384 87.4076C61.3224 87.0249 61.5782 86.7267 61.906 86.5132C62.2358 86.2975 62.6207 86.1897 63.0605 86.1897C63.3142 86.1897 63.5648 86.232 63.8122 86.3165C64.0596 86.4011 64.2848 86.5386 64.4878 86.7289C64.6908 86.917 64.8525 87.1666 64.973 87.4774C65.0936 87.7882 65.1538 88.1709 65.1538 88.6256V88.9427H61.3985V88.2957H64.3926C64.3926 88.0208 64.3376 87.7755 64.2277 87.5599C64.1199 87.3442 63.9655 87.174 63.7646 87.0492C63.5659 86.9244 63.3311 86.8621 63.0605 86.8621C62.7623 86.8621 62.5044 86.9361 62.2866 87.0841C62.0709 87.23 61.9049 87.4203 61.7886 87.655C61.6723 87.8897 61.6142 88.1413 61.6142 88.4099V88.8412C61.6142 89.2092 61.6776 89.521 61.8045 89.7769C61.9335 90.0306 62.1121 90.2241 62.3405 90.3573C62.5689 90.4884 62.8342 90.554 63.1366 90.554C63.3333 90.554 63.5109 90.5265 63.6695 90.4715C63.8302 90.4144 63.9687 90.3298 64.085 90.2178C64.2013 90.1036 64.2911 89.9619 64.3546 89.7928L65.0777 89.9957C65.0016 90.241 64.8737 90.4567 64.6939 90.6428C64.5142 90.8267 64.2922 90.9705 64.0279 91.0741C63.7636 91.1756 63.4665 91.2264 63.1366 91.2264ZM66.9874 84.6292V91.1249H66.2389V84.6292H66.9874ZM72.882 86.2531V86.8874H70.3573V86.2531H72.882ZM71.0931 85.0859H71.8416V89.7293C71.8416 89.9408 71.8723 90.0994 71.9336 90.2051C71.997 90.3087 72.0774 90.3785 72.1747 90.4144C72.274 90.4482 72.3787 90.4652 72.4887 90.4652C72.5711 90.4652 72.6388 90.4609 72.6917 90.4525C72.7445 90.4419 72.7868 90.4334 72.8185 90.4271L72.9708 91.0995C72.92 91.1185 72.8492 91.1376 72.7583 91.1566C72.6673 91.1777 72.5521 91.1883 72.4125 91.1883C72.2011 91.1883 71.9939 91.1429 71.7909 91.0519C71.59 90.961 71.423 90.8225 71.2897 90.6364C71.1587 90.4504 71.0931 90.2156 71.0931 89.9323V85.0859ZM77.0246 89.133V86.2531H77.7731V91.1249H77.0246V90.3002H76.9738C76.8596 90.5476 76.682 90.758 76.441 90.9314C76.1999 91.1027 75.8954 91.1883 75.5275 91.1883C75.223 91.1883 74.9524 91.1217 74.7155 90.9885C74.4787 90.8532 74.2926 90.6502 74.1573 90.3795C74.022 90.1068 73.9543 89.7631 73.9543 89.3487V86.2531H74.7029V89.298C74.7029 89.6532 74.8022 89.9365 75.001 90.148C75.2019 90.3594 75.4577 90.4652 75.7686 90.4652C75.9546 90.4652 76.1439 90.4176 76.3363 90.3224C76.5308 90.2273 76.6937 90.0814 76.8247 89.8847C76.958 89.6881 77.0246 89.4375 77.0246 89.133ZM81.0697 91.2264C80.6298 91.2264 80.2439 91.1217 79.912 90.9124C79.5821 90.703 79.3241 90.4102 79.1381 90.0338C78.9541 89.6574 78.8621 89.2176 78.8621 88.7144C78.8621 88.2069 78.9541 87.7639 79.1381 87.3854C79.3241 87.0069 79.5821 86.713 79.912 86.5037C80.2439 86.2943 80.6298 86.1897 81.0697 86.1897C81.5095 86.1897 81.8943 86.2943 82.2242 86.5037C82.5561 86.713 82.8141 87.0069 82.9981 87.3854C83.1841 87.7639 83.2772 88.2069 83.2772 88.7144C83.2772 89.2176 83.1841 89.6574 82.9981 90.0338C82.8141 90.4102 82.5561 90.703 82.2242 90.9124C81.8943 91.1217 81.5095 91.2264 81.0697 91.2264ZM81.0697 90.554C81.4037 90.554 81.6786 90.4683 81.8943 90.2971C82.11 90.1258 82.2696 89.9006 82.3732 89.6215C82.4768 89.3424 82.5286 89.04 82.5286 88.7144C82.5286 88.3887 82.4768 88.0853 82.3732 87.8041C82.2696 87.5228 82.11 87.2955 81.8943 87.1222C81.6786 86.9488 81.4037 86.8621 81.0697 86.8621C80.7356 86.8621 80.4607 86.9488 80.245 87.1222C80.0293 87.2955 79.8697 87.5228 79.7661 87.8041C79.6625 88.0853 79.6107 88.3887 79.6107 88.7144C79.6107 89.04 79.6625 89.3424 79.7661 89.6215C79.8697 89.9006 80.0293 90.1258 80.245 90.2971C80.4607 90.4683 80.7356 90.554 81.0697 90.554ZM90.2755 87.3442L89.6031 87.5345C89.5608 87.4224 89.4984 87.3135 89.4159 87.2078C89.3356 87.0999 89.2256 87.0111 89.0861 86.9414C88.9465 86.8716 88.7678 86.8367 88.55 86.8367C88.2519 86.8367 88.0035 86.9054 87.8047 87.0429C87.608 87.1782 87.5097 87.3505 87.5097 87.5599C87.5097 87.7459 87.5774 87.8929 87.7127 88.0007C87.848 88.1086 88.0595 88.1984 88.3471 88.2703L89.0702 88.4479C89.5058 88.5537 89.8304 88.7154 90.0439 88.9332C90.2575 89.1489 90.3643 89.4269 90.3643 89.7674C90.3643 90.0465 90.2839 90.296 90.1232 90.5159C89.9646 90.7358 89.7426 90.9092 89.4572 91.0361C89.1717 91.1629 88.8397 91.2264 88.4612 91.2264C87.9643 91.2264 87.5531 91.1185 87.2274 90.9029C86.9018 90.6872 86.6956 90.3721 86.6089 89.9577L87.3194 89.7801C87.3871 90.0423 87.515 90.2389 87.7032 90.37C87.8935 90.5011 88.142 90.5667 88.4486 90.5667C88.7974 90.5667 89.0744 90.4926 89.2795 90.3446C89.4868 90.1945 89.5904 90.0148 89.5904 89.8054C89.5904 89.6363 89.5312 89.4946 89.4128 89.3804C89.2943 89.2641 89.1125 89.1774 88.8672 89.1203L88.0553 88.93C87.6091 88.8243 87.2814 88.6604 87.072 88.4384C86.8648 88.2143 86.7612 87.9341 86.7612 87.5979C86.7612 87.323 86.8384 87.0799 86.9927 86.8684C87.1492 86.657 87.3617 86.491 87.6302 86.3705C87.9009 86.2499 88.2075 86.1897 88.55 86.1897C89.0321 86.1897 89.4106 86.2954 89.6855 86.5068C89.9625 86.7183 90.1592 86.9974 90.2755 87.3442ZM93.5562 86.2531V86.8874H91.0315V86.2531H93.5562ZM91.7673 85.0859H92.5158V89.7293C92.5158 89.9408 92.5465 90.0994 92.6078 90.2051C92.6713 90.3087 92.7516 90.3785 92.8489 90.4144C92.9482 90.4482 93.0529 90.4652 93.1629 90.4652C93.2453 90.4652 93.313 90.4609 93.3659 90.4525C93.4187 90.4419 93.461 90.4334 93.4927 90.4271L93.645 91.0995C93.5942 91.1185 93.5234 91.1376 93.4325 91.1566C93.3415 91.1777 93.2263 91.1883 93.0867 91.1883C92.8753 91.1883 92.6681 91.1429 92.4651 91.0519C92.2642 90.961 92.0972 90.8225 91.964 90.6364C91.8329 90.4504 91.7673 90.2156 91.7673 89.9323V85.0859ZM97.6988 89.133V86.2531H98.4473V91.1249H97.6988V90.3002H97.648C97.5338 90.5476 97.3562 90.758 97.1152 90.9314C96.8741 91.1027 96.5696 91.1883 96.2017 91.1883C95.8972 91.1883 95.6266 91.1217 95.3898 90.9885C95.1529 90.8532 94.9669 90.6502 94.8315 90.3795C94.6962 90.1068 94.6285 89.7631 94.6285 89.3487V86.2531H95.3771V89.298C95.3771 89.6532 95.4764 89.9365 95.6752 90.148C95.8761 90.3594 96.1319 90.4652 96.4428 90.4652C96.6288 90.4652 96.8181 90.4176 97.0105 90.3224C97.205 90.2273 97.3679 90.0814 97.499 89.8847C97.6322 89.6881 97.6988 89.4375 97.6988 89.133ZM101.604 91.2264C101.198 91.2264 100.84 91.1238 100.529 90.9187C100.218 90.7115 99.9751 90.4197 99.7996 90.0433C99.6241 89.6648 99.5363 89.2176 99.5363 88.7017C99.5363 88.19 99.6241 87.7459 99.7996 87.3695C99.9751 86.9932 100.219 86.7024 100.532 86.4973C100.845 86.2922 101.207 86.1897 101.617 86.1897C101.934 86.1897 102.185 86.2425 102.369 86.3482C102.555 86.4519 102.696 86.5703 102.794 86.7035C102.893 86.8346 102.97 86.9424 103.025 87.027H103.089V84.6292H103.837V91.1249H103.114V90.3763H103.025C102.97 90.4652 102.892 90.5772 102.791 90.7126C102.689 90.8458 102.544 90.9652 102.356 91.071C102.168 91.1746 101.917 91.2264 101.604 91.2264ZM101.706 90.554C102.006 90.554 102.26 90.4757 102.467 90.3193C102.674 90.1607 102.832 89.9418 102.94 89.6627C103.047 89.3815 103.101 89.0569 103.101 88.689C103.101 88.3253 103.048 88.0071 102.943 87.7343C102.837 87.4594 102.681 87.2458 102.473 87.0936C102.266 86.9392 102.01 86.8621 101.706 86.8621C101.389 86.8621 101.124 86.9435 100.913 87.1063C100.704 87.267 100.546 87.4858 100.44 87.7628C100.337 88.0377 100.285 88.3464 100.285 88.689C100.285 89.0358 100.338 89.3508 100.443 89.6342C100.551 89.9154 100.71 90.1395 100.919 90.3066C101.131 90.4715 101.393 90.554 101.706 90.554ZM105.258 91.1249V86.2531H106.007V91.1249H105.258ZM105.639 85.4411C105.493 85.4411 105.367 85.3914 105.262 85.2921C105.158 85.1927 105.106 85.0732 105.106 84.9337C105.106 84.7941 105.158 84.6746 105.262 84.5753C105.367 84.4759 105.493 84.4262 105.639 84.4262C105.785 84.4262 105.91 84.4759 106.013 84.5753C106.119 84.6746 106.172 84.7941 106.172 84.9337C106.172 85.0732 106.119 85.1927 106.013 85.2921C105.91 85.3914 105.785 85.4411 105.639 85.4411ZM109.304 91.2264C108.864 91.2264 108.478 91.1217 108.146 90.9124C107.816 90.703 107.558 90.4102 107.372 90.0338C107.188 89.6574 107.096 89.2176 107.096 88.7144C107.096 88.2069 107.188 87.7639 107.372 87.3854C107.558 87.0069 107.816 86.713 108.146 86.5037C108.478 86.2943 108.864 86.1897 109.304 86.1897C109.743 86.1897 110.128 86.2943 110.458 86.5037C110.79 86.713 111.048 87.0069 111.232 87.3854C111.418 87.7639 111.511 88.2069 111.511 88.7144C111.511 89.2176 111.418 89.6574 111.232 90.0338C111.048 90.4102 110.79 90.703 110.458 90.9124C110.128 91.1217 109.743 91.2264 109.304 91.2264ZM109.304 90.554C109.638 90.554 109.913 90.4683 110.128 90.2971C110.344 90.1258 110.504 89.9006 110.607 89.6215C110.711 89.3424 110.763 89.04 110.763 88.7144C110.763 88.3887 110.711 88.0853 110.607 87.8041C110.504 87.5228 110.344 87.2955 110.128 87.1222C109.913 86.9488 109.638 86.8621 109.304 86.8621C108.969 86.8621 108.695 86.9488 108.479 87.1222C108.263 87.2955 108.104 87.5228 108 87.8041C107.896 88.0853 107.845 88.3887 107.845 88.7144C107.845 89.04 107.896 89.3424 108 89.6215C108.104 89.9006 108.263 90.1258 108.479 90.2971C108.695 90.4683 108.969 90.554 109.304 90.554Z" fill="black"/>
<rect x="20.319" y="76.4604" width="195.362" height="22.329" rx="4.78478" stroke="#E2E8F0" stroke-width="0.637971"/>
</g>
<path d="M26.8328 22.5763V30H25.6366L22.1387 24.9434H22.077V30H20.7322V22.5763H21.9357L25.43 27.6366H25.4953V22.5763H26.8328ZM30.6076 30.1087C30.0638 30.1087 29.5926 29.9891 29.1939 29.7499C28.7951 29.5106 28.4858 29.176 28.2659 28.7458C28.0484 28.3157 27.9397 27.813 27.9397 27.2379C27.9397 26.6627 28.0484 26.1589 28.2659 25.7263C28.4858 25.2938 28.7951 24.9579 29.1939 24.7186C29.5926 24.4794 30.0638 24.3598 30.6076 24.3598C31.1513 24.3598 31.6225 24.4794 32.0212 24.7186C32.42 24.9579 32.7281 25.2938 32.9456 25.7263C33.1655 26.1589 33.2754 26.6627 33.2754 27.2379C33.2754 27.813 33.1655 28.3157 32.9456 28.7458C32.7281 29.176 32.42 29.5106 32.0212 29.7499C31.6225 29.9891 31.1513 30.1087 30.6076 30.1087ZM30.6148 29.0575C30.9096 29.0575 31.1561 28.9766 31.3543 28.8147C31.5524 28.6504 31.6998 28.4304 31.7965 28.155C31.8956 27.8795 31.9451 27.5726 31.9451 27.2342C31.9451 26.8935 31.8956 26.5854 31.7965 26.3099C31.6998 26.032 31.5524 25.8109 31.3543 25.6466C31.1561 25.4822 30.9096 25.4001 30.6148 25.4001C30.3127 25.4001 30.0614 25.4822 29.8608 25.6466C29.6627 25.8109 29.5141 26.032 29.415 26.3099C29.3183 26.5854 29.27 26.8935 29.27 27.2342C29.27 27.5726 29.3183 27.8795 29.415 28.155C29.5141 28.4304 29.6627 28.6504 29.8608 28.8147C30.0614 28.9766 30.3127 29.0575 30.6148 29.0575ZM34.3279 30V24.4323H35.5821V25.3783H35.6474C35.7634 25.0593 35.9555 24.8104 36.2237 24.6316C36.4919 24.4504 36.8121 24.3598 37.1843 24.3598C37.5613 24.3598 37.8791 24.4516 38.1376 24.6352C38.3986 24.8165 38.5823 25.0642 38.6886 25.3783H38.7466C38.8698 25.069 39.0777 24.8225 39.3701 24.6389C39.6649 24.4528 40.0141 24.3598 40.4176 24.3598C40.93 24.3598 41.348 24.5217 41.6718 24.8455C41.9957 25.1693 42.1576 25.6417 42.1576 26.2628V30H40.8418V26.4658C40.8418 26.1202 40.7499 25.8677 40.5663 25.7082C40.3826 25.5463 40.1579 25.4653 39.892 25.4653C39.5755 25.4653 39.3278 25.5644 39.149 25.7626C38.9725 25.9583 38.8843 26.2133 38.8843 26.5274V30H37.5975V26.4114C37.5975 26.1238 37.5105 25.8943 37.3365 25.7227C37.165 25.5511 36.9402 25.4653 36.6623 25.4653C36.4738 25.4653 36.3022 25.5137 36.1476 25.6103C35.9929 25.7046 35.8697 25.8387 35.7779 26.0127C35.686 26.1843 35.6401 26.3848 35.6401 26.6144V30H34.3279ZM45.8924 30.1087C45.3342 30.1087 44.8521 29.9928 44.4461 29.7608C44.0426 29.5264 43.732 29.1953 43.5145 28.7676C43.297 28.3374 43.1883 27.8311 43.1883 27.2487C43.1883 26.676 43.297 26.1734 43.5145 25.7408C43.7344 25.3058 44.0413 24.9675 44.4352 24.7259C44.8291 24.4818 45.2919 24.3598 45.8236 24.3598C46.1667 24.3598 46.4905 24.4153 46.795 24.5265C47.1019 24.6352 47.3726 24.8044 47.607 25.034C47.8438 25.2635 48.0299 25.556 48.1652 25.9112C48.3005 26.264 48.3682 26.6845 48.3682 27.1726V27.575H43.8045V26.6905H47.1104C47.108 26.4392 47.0536 26.2157 46.9473 26.0199C46.8409 25.8218 46.6923 25.6659 46.5014 25.5523C46.3129 25.4387 46.093 25.382 45.8417 25.382C45.5734 25.382 45.3378 25.4472 45.1348 25.5777C44.9318 25.7058 44.7736 25.8749 44.66 26.0852C44.5488 26.293 44.492 26.5214 44.4896 26.7703V27.5424C44.4896 27.8662 44.5488 28.1441 44.6672 28.3761C44.7856 28.6056 44.9512 28.7821 45.1638 28.9053C45.3765 29.0261 45.6254 29.0865 45.9106 29.0865C46.1015 29.0865 46.2742 29.06 46.4289 29.0068C46.5836 28.9512 46.7177 28.8703 46.8313 28.7639C46.9448 28.6576 47.0306 28.5259 47.0886 28.3688L48.3138 28.5066C48.2365 28.8304 48.0891 29.1131 47.8716 29.3548C47.6565 29.594 47.381 29.7801 47.0451 29.913C46.7092 30.0435 46.325 30.1087 45.8924 30.1087ZM53.9539 30.0979C53.5165 30.0979 53.125 29.9855 52.7795 29.7608C52.4339 29.536 52.1608 29.2098 51.9603 28.7821C51.7597 28.3543 51.6594 27.8348 51.6594 27.2234C51.6594 26.6047 51.7609 26.0828 51.9639 25.6574C52.1693 25.2297 52.446 24.9071 52.794 24.6896C53.142 24.4697 53.5298 24.3598 53.9575 24.3598C54.2838 24.3598 54.552 24.4153 54.7623 24.5265C54.9725 24.6352 55.1392 24.7669 55.2625 24.9216C55.3857 25.0738 55.4812 25.2176 55.5488 25.353H55.6032V22.5763H56.919V30H55.6286V29.1228H55.5488C55.4812 29.2581 55.3833 29.4019 55.2552 29.5541C55.1272 29.704 54.958 29.832 54.7478 29.9384C54.5375 30.0447 54.2729 30.0979 53.9539 30.0979ZM54.32 29.0213C54.5979 29.0213 54.8348 28.9464 55.0305 28.7966C55.2262 28.6443 55.3749 28.4329 55.4763 28.1622C55.5778 27.8916 55.6286 27.5762 55.6286 27.2161C55.6286 26.8561 55.5778 26.5431 55.4763 26.2773C55.3773 26.0115 55.2299 25.8049 55.0341 25.6574C54.8408 25.51 54.6028 25.4363 54.32 25.4363C54.0276 25.4363 53.7835 25.5125 53.5878 25.6647C53.3921 25.8169 53.2447 26.0272 53.1456 26.2954C53.0465 26.5637 52.997 26.8706 52.997 27.2161C52.997 27.5641 53.0465 27.8746 53.1456 28.1477C53.2471 28.4184 53.3957 28.6322 53.5914 28.7893C53.7896 28.944 54.0325 29.0213 54.32 29.0213ZM60.721 30.1087C60.1627 30.1087 59.6806 29.9928 59.2746 29.7608C58.8711 29.5264 58.5606 29.1953 58.3431 28.7676C58.1256 28.3374 58.0168 27.8311 58.0168 27.2487C58.0168 26.676 58.1256 26.1734 58.3431 25.7408C58.563 25.3058 58.8699 24.9675 59.2638 24.7259C59.6577 24.4818 60.1204 24.3598 60.6521 24.3598C60.9952 24.3598 61.3191 24.4153 61.6235 24.5265C61.9304 24.6352 62.2011 24.8044 62.4355 25.034C62.6723 25.2635 62.8584 25.556 62.9937 25.9112C63.1291 26.264 63.1967 26.6845 63.1967 27.1726V27.575H58.6331V26.6905H61.9389C61.9365 26.4392 61.8821 26.2157 61.7758 26.0199C61.6695 25.8218 61.5208 25.6659 61.3299 25.5523C61.1414 25.4387 60.9215 25.382 60.6702 25.382C60.402 25.382 60.1664 25.4472 59.9634 25.5777C59.7604 25.7058 59.6021 25.8749 59.4885 26.0852C59.3774 26.293 59.3206 26.5214 59.3181 26.7703V27.5424C59.3181 27.8662 59.3774 28.1441 59.4958 28.3761C59.6142 28.6056 59.7797 28.7821 59.9924 28.9053C60.205 29.0261 60.4539 29.0865 60.7391 29.0865C60.93 29.0865 61.1028 29.06 61.2574 29.0068C61.4121 28.9512 61.5462 28.8703 61.6598 28.7639C61.7734 28.6576 61.8592 28.5259 61.9172 28.3688L63.1423 28.5066C63.065 28.8304 62.9176 29.1131 62.7001 29.3548C62.485 29.594 62.2096 29.7801 61.8737 29.913C61.5378 30.0435 61.1535 30.1087 60.721 30.1087ZM65.5578 22.5763V30H64.2456V22.5763H65.5578ZM68.1581 22.5763V30H66.8459V22.5763H68.1581ZM71.8748 30.1087C71.3311 30.1087 70.8598 29.9891 70.4611 29.7499C70.0624 29.5106 69.7531 29.176 69.5332 28.7458C69.3157 28.3157 69.2069 27.813 69.2069 27.2379C69.2069 26.6627 69.3157 26.1589 69.5332 25.7263C69.7531 25.2938 70.0624 24.9579 70.4611 24.7186C70.8598 24.4794 71.3311 24.3598 71.8748 24.3598C72.4185 24.3598 72.8898 24.4794 73.2885 24.7186C73.6872 24.9579 73.9953 25.2938 74.2128 25.7263C74.4327 26.1589 74.5427 26.6627 74.5427 27.2379C74.5427 27.813 74.4327 28.3157 74.2128 28.7458C73.9953 29.176 73.6872 29.5106 73.2885 29.7499C72.8898 29.9891 72.4185 30.1087 71.8748 30.1087ZM71.8821 29.0575C72.1769 29.0575 72.4234 28.9766 72.6215 28.8147C72.8197 28.6504 72.9671 28.4304 73.0637 28.155C73.1628 27.8795 73.2124 27.5726 73.2124 27.2342C73.2124 26.8935 73.1628 26.5854 73.0637 26.3099C72.9671 26.032 72.8197 25.8109 72.6215 25.6466C72.4234 25.4822 72.1769 25.4001 71.8821 25.4001C71.58 25.4001 71.3287 25.4822 71.1281 25.6466C70.9299 25.8109 70.7813 26.032 70.6822 26.3099C70.5856 26.5854 70.5372 26.8935 70.5372 27.2342C70.5372 27.5726 70.5856 27.8795 70.6822 28.155C70.7813 28.4304 70.9299 28.6504 71.1281 28.8147C71.3287 28.9766 71.58 29.0575 71.8821 29.0575ZM82.4664 25.9039L81.2702 26.0344C81.2364 25.9136 81.1772 25.8 81.0926 25.6937C81.0104 25.5874 80.8993 25.5016 80.7591 25.4363C80.619 25.3711 80.4474 25.3385 80.2444 25.3385C79.9713 25.3385 79.7418 25.3977 79.5557 25.5161C79.372 25.6345 79.2814 25.7879 79.2838 25.9764C79.2814 26.1383 79.3406 26.27 79.4614 26.3715C79.5847 26.473 79.7877 26.5564 80.0704 26.6217L81.0201 26.8246C81.5469 26.9382 81.9384 27.1183 82.1946 27.3647C82.4531 27.6112 82.5836 27.9338 82.586 28.3326C82.5836 28.683 82.4809 28.9923 82.2779 29.2605C82.0774 29.5264 81.7982 29.7342 81.4406 29.884C81.0829 30.0338 80.6721 30.1087 80.2081 30.1087C79.5267 30.1087 78.9781 29.9662 78.5625 29.681C78.1468 29.3934 77.8991 28.9935 77.8194 28.4812L79.0989 28.3579C79.1569 28.6093 79.2802 28.799 79.4687 28.927C79.6572 29.0551 79.9025 29.1192 80.2045 29.1192C80.5163 29.1192 80.7664 29.0551 80.9549 28.927C81.1458 28.799 81.2412 28.6407 81.2412 28.4522C81.2412 28.2927 81.1796 28.161 81.0564 28.0571C80.9355 27.9532 80.747 27.8734 80.4909 27.8178L79.5412 27.6185C79.0071 27.5073 78.612 27.32 78.3559 27.0566C78.0997 26.7908 77.9728 26.4549 77.9752 26.0489C77.9728 25.7058 78.0659 25.4085 78.2544 25.1572C78.4453 24.9035 78.7099 24.7077 79.0482 24.57C79.3889 24.4298 79.7816 24.3598 80.2263 24.3598C80.8787 24.3598 81.3923 24.4987 81.7668 24.7766C82.1438 25.0545 82.377 25.4303 82.4664 25.9039ZM86.3871 24.4323V25.4472H83.1863V24.4323H86.3871ZM83.9765 23.0983H85.2887V28.3253C85.2887 28.5017 85.3153 28.6371 85.3685 28.7313C85.4241 28.8231 85.4966 28.886 85.586 28.9198C85.6754 28.9536 85.7745 28.9705 85.8832 28.9705C85.9654 28.9705 86.0403 28.9645 86.1079 28.9524C86.178 28.9403 86.2312 28.9295 86.2674 28.9198L86.4886 29.9456C86.4185 29.9698 86.3182 29.9964 86.1877 30.0254C86.0596 30.0544 85.9025 30.0713 85.7165 30.0761C85.3878 30.0858 85.0918 30.0362 84.8284 29.9275C84.565 29.8163 84.3559 29.6448 84.2013 29.4128C84.049 29.1808 83.9741 28.8908 83.9765 28.5428V23.0983ZM90.972 27.6584V24.4323H92.2841V30H91.0118V29.0104H90.9538C90.8282 29.3222 90.6215 29.5771 90.334 29.7753C90.0488 29.9734 89.6972 30.0725 89.2792 30.0725C88.9143 30.0725 88.5916 29.9915 88.3113 29.8296C88.0334 29.6653 87.8159 29.4273 87.6588 29.1155C87.5018 28.8014 87.4232 28.422 87.4232 27.9773V24.4323H88.7354V27.7744C88.7354 28.1272 88.8321 28.4075 89.0254 28.6153C89.2187 28.8231 89.4725 28.927 89.7866 28.927C89.98 28.927 90.1672 28.8799 90.3485 28.7857C90.5297 28.6914 90.6783 28.5513 90.7943 28.3652C90.9127 28.1767 90.972 27.9411 90.972 27.6584ZM95.6384 30.0979C95.201 30.0979 94.8095 29.9855 94.4639 29.7608C94.1184 29.536 93.8453 29.2098 93.6447 28.7821C93.4442 28.3543 93.3439 27.8348 93.3439 27.2234C93.3439 26.6047 93.4454 26.0828 93.6484 25.6574C93.8538 25.2297 94.1305 24.9071 94.4784 24.6896C94.8264 24.4697 95.2143 24.3598 95.642 24.3598C95.9683 24.3598 96.2365 24.4153 96.4467 24.5265C96.657 24.6352 96.8237 24.7669 96.947 24.9216C97.0702 25.0738 97.1657 25.2176 97.2333 25.353H97.2877V22.5763H98.6035V30H97.3131V29.1228H97.2333C97.1657 29.2581 97.0678 29.4019 96.9397 29.5541C96.8116 29.704 96.6425 29.832 96.4322 29.9384C96.222 30.0447 95.9574 30.0979 95.6384 30.0979ZM96.0045 29.0213C96.2824 29.0213 96.5192 28.9464 96.715 28.7966C96.9107 28.6443 97.0593 28.4329 97.1608 28.1622C97.2623 27.8916 97.3131 27.5762 97.3131 27.2161C97.3131 26.8561 97.2623 26.5431 97.1608 26.2773C97.0617 26.0115 96.9143 25.8049 96.7186 25.6574C96.5253 25.51 96.2872 25.4363 96.0045 25.4363C95.7121 25.4363 95.468 25.5125 95.2723 25.6647C95.0765 25.8169 94.9291 26.0272 94.8301 26.2954C94.731 26.5637 94.6814 26.8706 94.6814 27.2161C94.6814 27.5641 94.731 27.8746 94.8301 28.1477C94.9316 28.4184 95.0802 28.6322 95.2759 28.7893C95.4741 28.944 95.7169 29.0213 96.0045 29.0213ZM99.9405 30V24.4323H101.253V30H99.9405ZM100.6 23.642C100.392 23.642 100.214 23.5732 100.064 23.4354C99.914 23.2953 99.8391 23.1273 99.8391 22.9316C99.8391 22.7334 99.914 22.5655 100.064 22.4277C100.214 22.2876 100.392 22.2175 100.6 22.2175C100.811 22.2175 100.989 22.2876 101.137 22.4277C101.287 22.5655 101.361 22.7334 101.361 22.9316C101.361 23.1273 101.287 23.2953 101.137 23.4354C100.989 23.5732 100.811 23.642 100.6 23.642ZM104.969 30.1087C104.426 30.1087 103.955 29.9891 103.556 29.7499C103.157 29.5106 102.848 29.176 102.628 28.7458C102.41 28.3157 102.302 27.813 102.302 27.2379C102.302 26.6627 102.41 26.1589 102.628 25.7263C102.848 25.2938 103.157 24.9579 103.556 24.7186C103.955 24.4794 104.426 24.3598 104.969 24.3598C105.513 24.3598 105.984 24.4794 106.383 24.7186C106.782 24.9579 107.09 25.2938 107.308 25.7263C107.527 26.1589 107.637 26.6627 107.637 27.2379C107.637 27.813 107.527 28.3157 107.308 28.7458C107.09 29.176 106.782 29.5106 106.383 29.7499C105.984 29.9891 105.513 30.1087 104.969 30.1087ZM104.977 29.0575C105.272 29.0575 105.518 28.9766 105.716 28.8147C105.914 28.6504 106.062 28.4304 106.158 28.155C106.258 27.8795 106.307 27.5726 106.307 27.2342C106.307 26.8935 106.258 26.5854 106.158 26.3099C106.062 26.032 105.914 25.8109 105.716 25.6466C105.518 25.4822 105.272 25.4001 104.977 25.4001C104.675 25.4001 104.423 25.4822 104.223 25.6466C104.025 25.8109 103.876 26.032 103.777 26.3099C103.68 26.5854 103.632 26.8935 103.632 27.2342C103.632 27.5726 103.68 27.8795 103.777 28.155C103.876 28.4304 104.025 28.6504 104.223 28.8147C104.423 28.9766 104.675 29.0575 104.977 29.0575Z" fill="black"/>
<path d="M20.7866 45.3112V38.8155H22.9814C23.491 38.8155 23.9076 38.9075 24.2311 39.0915C24.5567 39.2733 24.7978 39.5196 24.9542 39.8305C25.1107 40.1413 25.189 40.4881 25.189 40.8708C25.189 41.2535 25.1107 41.6013 24.9542 41.9143C24.7999 42.2272 24.561 42.4767 24.2374 42.6628C23.9139 42.8468 23.4995 42.9388 22.9941 42.9388H21.4209V42.241H22.9687C23.3176 42.241 23.5978 42.1807 23.8093 42.0602C24.0207 41.9397 24.174 41.7769 24.2692 41.5717C24.3664 41.3645 24.4151 41.1309 24.4151 40.8708C24.4151 40.6107 24.3664 40.3781 24.2692 40.173C24.174 39.9679 24.0196 39.8072 23.8061 39.6909C23.5925 39.5725 23.3092 39.5133 22.9561 39.5133H21.5732V45.3112H20.7866ZM28.2912 45.4127C27.8218 45.4127 27.4169 45.3091 27.0765 45.1019C26.7381 44.8925 26.477 44.6008 26.293 44.2265C26.1112 43.8501 26.0203 43.4124 26.0203 42.9134C26.0203 42.4144 26.1112 41.9746 26.293 41.5939C26.477 41.2112 26.7329 40.9131 27.0606 40.6995C27.3905 40.4838 27.7753 40.376 28.2151 40.376C28.4689 40.376 28.7194 40.4183 28.9668 40.5029C29.2142 40.5875 29.4394 40.7249 29.6424 40.9152C29.8454 41.1034 30.0071 41.3529 30.1277 41.6637C30.2482 41.9746 30.3085 42.3573 30.3085 42.8119V43.1291H26.5531V42.482H29.5472C29.5472 42.2071 29.4923 41.9619 29.3823 41.7462C29.2745 41.5305 29.1201 41.3603 28.9192 41.2355C28.7205 41.1108 28.4858 41.0484 28.2151 41.0484C27.917 41.0484 27.659 41.1224 27.4412 41.2704C27.2255 41.4163 27.0595 41.6066 26.9433 41.8413C26.827 42.0761 26.7688 42.3277 26.7688 42.5962V43.0276C26.7688 43.3955 26.8322 43.7074 26.9591 43.9632C27.0881 44.217 27.2668 44.4104 27.4951 44.5437C27.7235 44.6748 27.9889 44.7403 28.2912 44.7403C28.4879 44.7403 28.6655 44.7128 28.8241 44.6578C28.9848 44.6008 29.1233 44.5162 29.2396 44.4041C29.3559 44.2899 29.4457 44.1482 29.5092 43.9791L30.2323 44.1821C30.1562 44.4274 30.0283 44.643 29.8486 44.8291C29.6688 45.0131 29.4468 45.1569 29.1825 45.2605C28.9182 45.362 28.6211 45.4127 28.2912 45.4127ZM31.3935 45.3112V40.4394H32.1167V41.1753H32.1674C32.2562 40.9342 32.4169 40.7386 32.6495 40.5885C32.8821 40.4384 33.1443 40.3633 33.4361 40.3633C33.4911 40.3633 33.5598 40.3644 33.6423 40.3665C33.7247 40.3686 33.7871 40.3718 33.8294 40.376V41.1372C33.804 41.1309 33.7459 41.1214 33.655 41.1087C33.5662 41.0939 33.4721 41.0865 33.3727 41.0865C33.1359 41.0865 32.9244 41.1362 32.7383 41.2355C32.5544 41.3328 32.4085 41.4681 32.3006 41.6415C32.1949 41.8128 32.1421 42.0084 32.1421 42.2283V45.3112H31.3935ZM38.114 41.5305L37.4416 41.7208C37.3993 41.6087 37.3369 41.4999 37.2544 41.3941C37.1741 41.2863 37.0641 41.1975 36.9246 41.1277C36.785 41.0579 36.6063 41.023 36.3885 41.023C36.0904 41.023 35.8419 41.0918 35.6432 41.2292C35.4465 41.3645 35.3482 41.5369 35.3482 41.7462C35.3482 41.9323 35.4159 42.0792 35.5512 42.1871C35.6865 42.2949 35.898 42.3848 36.1855 42.4567L36.9087 42.6343C37.3443 42.74 37.6689 42.9018 37.8824 43.1196C38.096 43.3352 38.2028 43.6133 38.2028 43.9537C38.2028 44.2328 38.1224 44.4823 37.9617 44.7022C37.8031 44.9222 37.5811 45.0955 37.2957 45.2224C37.0102 45.3493 36.6782 45.4127 36.2997 45.4127C35.8028 45.4127 35.3916 45.3049 35.0659 45.0892C34.7403 44.8735 34.5341 44.5585 34.4474 44.144L35.1579 43.9664C35.2256 44.2286 35.3535 44.4252 35.5417 44.5563C35.732 44.6874 35.9804 44.753 36.287 44.753C36.6359 44.753 36.9129 44.679 37.118 44.531C37.3253 44.3808 37.4289 44.2011 37.4289 43.9918C37.4289 43.8226 37.3697 43.6809 37.2512 43.5668C37.1328 43.4505 36.951 43.3638 36.7057 43.3067L35.8937 43.1164C35.4476 43.0107 35.1198 42.8468 34.9105 42.6248C34.7033 42.4006 34.5997 42.1205 34.5997 41.7843C34.5997 41.5094 34.6769 41.2662 34.8312 41.0548C34.9877 40.8433 35.2002 40.6773 35.4687 40.5568C35.7394 40.4363 36.046 40.376 36.3885 40.376C36.8706 40.376 37.2491 40.4817 37.524 40.6932C37.801 40.9046 37.9977 41.1837 38.114 41.5305ZM41.2551 45.4127C40.8153 45.4127 40.4294 45.308 40.0974 45.0987C39.7676 44.8894 39.5096 44.5965 39.3235 44.2201C39.1396 43.8438 39.0476 43.4039 39.0476 42.9007C39.0476 42.3932 39.1396 41.9502 39.3235 41.5717C39.5096 41.1933 39.7676 40.8993 40.0974 40.69C40.4294 40.4807 40.8153 40.376 41.2551 40.376C41.6949 40.376 42.0797 40.4807 42.4096 40.69C42.7416 40.8993 42.9995 41.1933 43.1835 41.5717C43.3696 41.9502 43.4626 42.3932 43.4626 42.9007C43.4626 43.4039 43.3696 43.8438 43.1835 44.2201C42.9995 44.5965 42.7416 44.8894 42.4096 45.0987C42.0797 45.308 41.6949 45.4127 41.2551 45.4127ZM41.2551 44.7403C41.5892 44.7403 41.8641 44.6547 42.0797 44.4834C42.2954 44.3121 42.4551 44.0869 42.5587 43.8078C42.6623 43.5287 42.7141 43.2263 42.7141 42.9007C42.7141 42.5751 42.6623 42.2716 42.5587 41.9904C42.4551 41.7092 42.2954 41.4819 42.0797 41.3085C41.8641 41.1351 41.5892 41.0484 41.2551 41.0484C40.921 41.0484 40.6461 41.1351 40.4304 41.3085C40.2148 41.4819 40.0551 41.7092 39.9515 41.9904C39.8479 42.2716 39.7961 42.5751 39.7961 42.9007C39.7961 43.2263 39.8479 43.5287 39.9515 43.8078C40.0551 44.0869 40.2148 44.3121 40.4304 44.4834C40.6461 44.6547 40.921 44.7403 41.2551 44.7403ZM45.3002 42.3805V45.3112H44.5516V40.4394H45.2748V41.2007H45.3382C45.4524 40.9533 45.6258 40.7545 45.8584 40.6044C46.091 40.4521 46.3913 40.376 46.7592 40.376C47.089 40.376 47.3777 40.4437 47.6251 40.579C47.8725 40.7122 48.0649 40.9152 48.2023 41.188C48.3398 41.4586 48.4085 41.8012 48.4085 42.2156V45.3112H47.6599V42.2664C47.6599 41.8836 47.5606 41.5855 47.3618 41.3719C47.163 41.1562 46.8903 41.0484 46.5435 41.0484C46.3046 41.0484 46.091 41.1002 45.9028 41.2038C45.7167 41.3074 45.5698 41.4586 45.4619 41.6574C45.3541 41.8561 45.3002 42.0972 45.3002 42.3805ZM51.1563 45.4254C50.8476 45.4254 50.5674 45.3673 50.3158 45.251C50.0642 45.1325 49.8644 44.9623 49.7164 44.7403C49.5683 44.5162 49.4943 44.2455 49.4943 43.9283C49.4943 43.6492 49.5493 43.423 49.6593 43.2496C49.7692 43.0741 49.9162 42.9366 50.1001 42.8373C50.2841 42.7379 50.4871 42.6639 50.7091 42.6152C50.9332 42.5645 51.1584 42.5243 51.3847 42.4947C51.6807 42.4567 51.9207 42.4281 52.1047 42.4091C52.2907 42.3879 52.4261 42.353 52.5106 42.3044C52.5973 42.2558 52.6407 42.1712 52.6407 42.0507V42.0253C52.6407 41.7124 52.5551 41.4692 52.3838 41.2958C52.2146 41.1224 51.9577 41.0357 51.613 41.0357C51.2557 41.0357 50.9755 41.114 50.7725 41.2704C50.5695 41.4269 50.4268 41.5939 50.3444 41.7716L49.6339 41.5178C49.7608 41.2218 49.9299 40.9913 50.1414 40.8264C50.3549 40.6593 50.5875 40.543 50.8391 40.4775C51.0929 40.4098 51.3424 40.376 51.5877 40.376C51.7441 40.376 51.9239 40.395 52.1269 40.4331C52.332 40.469 52.5297 40.5441 52.72 40.6583C52.9124 40.7725 53.072 40.9448 53.1989 41.1753C53.3258 41.4058 53.3892 41.7145 53.3892 42.1014V45.3112H52.6407V44.6515H52.6026C52.5519 44.7572 52.4673 44.8703 52.3489 44.9909C52.2305 45.1114 52.0729 45.214 51.8763 45.2985C51.6797 45.3831 51.4397 45.4254 51.1563 45.4254ZM51.2705 44.753C51.5665 44.753 51.816 44.6948 52.019 44.5785C52.2241 44.4623 52.3785 44.3121 52.4821 44.1282C52.5878 43.9442 52.6407 43.7507 52.6407 43.5477V42.8626C52.609 42.9007 52.5392 42.9356 52.4314 42.9673C52.3256 42.9969 52.203 43.0233 52.0634 43.0466C51.926 43.0677 51.7917 43.0868 51.6606 43.1037C51.5316 43.1185 51.427 43.1312 51.3466 43.1418C51.1521 43.1671 50.9702 43.2084 50.8011 43.2655C50.634 43.3204 50.4987 43.4039 50.3951 43.516C50.2936 43.626 50.2429 43.7761 50.2429 43.9664C50.2429 44.2265 50.3391 44.4231 50.5315 44.5563C50.726 44.6874 50.9724 44.753 51.2705 44.753ZM55.4504 38.8155V45.3112H54.7019V38.8155H55.4504ZM56.7678 45.3112V40.4394H57.5163V45.3112H56.7678ZM57.1484 39.6275C57.0025 39.6275 56.8767 39.5778 56.7709 39.4784C56.6673 39.379 56.6155 39.2596 56.6155 39.12C56.6155 38.9804 56.6673 38.861 56.7709 38.7616C56.8767 38.6622 57.0025 38.6125 57.1484 38.6125C57.2943 38.6125 57.419 38.6622 57.5226 38.7616C57.6284 38.861 57.6812 38.9804 57.6812 39.12C57.6812 39.2596 57.6284 39.379 57.5226 39.4784C57.419 39.5778 57.2943 39.6275 57.1484 39.6275ZM58.6941 45.3112V44.7403L61.4599 41.188V41.1372H58.7829V40.4394H62.4241V41.0357L59.7345 44.5627V44.6134H62.5129V45.3112H58.6941ZM63.4727 45.3112V44.7403L66.2384 41.188V41.1372H63.5615V40.4394H67.2026V41.0357L64.513 44.5627V44.6134H67.2914V45.3112H63.4727ZM69.8244 45.4254C69.5157 45.4254 69.2355 45.3673 68.9839 45.251C68.7323 45.1325 68.5324 44.9623 68.3844 44.7403C68.2364 44.5162 68.1624 44.2455 68.1624 43.9283C68.1624 43.6492 68.2174 43.423 68.3273 43.2496C68.4373 43.0741 68.5843 42.9366 68.7682 42.8373C68.9522 42.7379 69.1552 42.6639 69.3772 42.6152C69.6013 42.5645 69.8265 42.5243 70.0528 42.4947C70.3488 42.4567 70.5888 42.4281 70.7727 42.4091C70.9588 42.3879 71.0942 42.353 71.1787 42.3044C71.2654 42.2558 71.3088 42.1712 71.3088 42.0507V42.0253C71.3088 41.7124 71.2231 41.4692 71.0519 41.2958C70.8827 41.1224 70.6258 41.0357 70.2811 41.0357C69.9238 41.0357 69.6436 41.114 69.4406 41.2704C69.2376 41.4269 69.0949 41.5939 69.0124 41.7716L68.302 41.5178C68.4288 41.2218 68.598 40.9913 68.8094 40.8264C69.023 40.6593 69.2556 40.543 69.5072 40.4775C69.761 40.4098 70.0105 40.376 70.2558 40.376C70.4122 40.376 70.592 40.395 70.795 40.4331C71.0001 40.469 71.1978 40.5441 71.3881 40.6583C71.5805 40.7725 71.7401 40.9448 71.867 41.1753C71.9939 41.4058 72.0573 41.7145 72.0573 42.1014V45.3112H71.3088V44.6515H71.2707C71.22 44.7572 71.1354 44.8703 71.017 44.9909C70.8986 45.1114 70.741 45.214 70.5444 45.2985C70.3477 45.3831 70.1077 45.4254 69.8244 45.4254ZM69.9386 44.753C70.2346 44.753 70.4841 44.6948 70.6871 44.5785C70.8922 44.4623 71.0466 44.3121 71.1502 44.1282C71.2559 43.9442 71.3088 43.7507 71.3088 43.5477V42.8626C71.2771 42.9007 71.2073 42.9356 71.0994 42.9673C70.9937 42.9969 70.8711 43.0233 70.7315 43.0466C70.5941 43.0677 70.4598 43.0868 70.3287 43.1037C70.1997 43.1185 70.0951 43.1312 70.0147 43.1418C69.8202 43.1671 69.6383 43.2084 69.4692 43.2655C69.3021 43.3204 69.1668 43.4039 69.0632 43.516C68.9617 43.626 68.9109 43.7761 68.9109 43.9664C68.9109 44.2265 69.0072 44.4231 69.1996 44.5563C69.3941 44.6874 69.6404 44.753 69.9386 44.753ZM75.8284 45.3112V40.4394H76.5769V45.3112H75.8284ZM76.209 39.6275C76.0631 39.6275 75.9373 39.5778 75.8315 39.4784C75.7279 39.379 75.6761 39.2596 75.6761 39.12C75.6761 38.9804 75.7279 38.861 75.8315 38.7616C75.9373 38.6622 76.0631 38.6125 76.209 38.6125C76.3549 38.6125 76.4796 38.6622 76.5832 38.7616C76.689 38.861 76.7418 38.9804 76.7418 39.12C76.7418 39.2596 76.689 39.379 76.5832 39.4784C76.4796 39.5778 76.3549 39.6275 76.209 39.6275ZM78.6428 38.8155V45.3112H77.8943V38.8155H78.6428ZM83.1672 42.3805V45.3112H82.4186V40.4394H83.1418V41.2007H83.2052C83.3194 40.9533 83.4928 40.7545 83.7254 40.6044C83.958 40.4521 84.2582 40.376 84.6261 40.376C84.956 40.376 85.2446 40.4437 85.492 40.579C85.7394 40.7122 85.9318 40.9152 86.0693 41.188C86.2067 41.4586 86.2754 41.8012 86.2754 42.2156V45.3112H85.5269V42.2664C85.5269 41.8836 85.4275 41.5855 85.2288 41.3719C85.03 41.1562 84.7572 41.0484 84.4105 41.0484C84.1715 41.0484 83.958 41.1002 83.7698 41.2038C83.5837 41.3074 83.4367 41.4586 83.3289 41.6574C83.2211 41.8561 83.1672 42.0972 83.1672 42.3805ZM89.5688 45.4127C89.129 45.4127 88.7431 45.308 88.4111 45.0987C88.0813 44.8894 87.8233 44.5965 87.6372 44.2201C87.4533 43.8438 87.3613 43.4039 87.3613 42.9007C87.3613 42.3932 87.4533 41.9502 87.6372 41.5717C87.8233 41.1933 88.0813 40.8993 88.4111 40.69C88.7431 40.4807 89.129 40.376 89.5688 40.376C90.0086 40.376 90.3935 40.4807 90.7233 40.69C91.0553 40.8993 91.3133 41.1933 91.4972 41.5717C91.6833 41.9502 91.7764 42.3932 91.7764 42.9007C91.7764 43.4039 91.6833 43.8438 91.4972 44.2201C91.3133 44.5965 91.0553 44.8894 90.7233 45.0987C90.3935 45.308 90.0086 45.4127 89.5688 45.4127ZM89.5688 44.7403C89.9029 44.7403 90.1778 44.6547 90.3935 44.4834C90.6092 44.3121 90.7688 44.0869 90.8724 43.8078C90.976 43.5287 91.0278 43.2263 91.0278 42.9007C91.0278 42.5751 90.976 42.2716 90.8724 41.9904C90.7688 41.7092 90.6092 41.4819 90.3935 41.3085C90.1778 41.1351 89.9029 41.0484 89.5688 41.0484C89.2347 41.0484 88.9599 41.1351 88.7442 41.3085C88.5285 41.4819 88.3689 41.7092 88.2652 41.9904C88.1616 42.2716 88.1098 42.5751 88.1098 42.9007C88.1098 43.2263 88.1616 43.5287 88.2652 43.8078C88.3689 44.0869 88.5285 44.3121 88.7442 44.4834C88.9599 44.6547 89.2347 44.7403 89.5688 44.7403ZM92.8654 45.3112V40.4394H93.5885V41.2007H93.652C93.7535 40.9406 93.9173 40.7386 94.1436 40.5949C94.3698 40.449 94.6416 40.376 94.9587 40.376C95.2801 40.376 95.5476 40.449 95.7612 40.5949C95.9769 40.7386 96.145 40.9406 96.2655 41.2007H96.3162C96.441 40.949 96.6281 40.7492 96.8776 40.6012C97.1271 40.4511 97.4263 40.376 97.7752 40.376C98.2108 40.376 98.5671 40.5124 98.8441 40.7852C99.1211 41.0558 99.2596 41.4777 99.2596 42.0507V45.3112H98.5111V42.0507C98.5111 41.6912 98.4127 41.4343 98.2161 41.2799C98.0194 41.1256 97.7879 41.0484 97.5215 41.0484C97.1789 41.0484 96.9136 41.152 96.7254 41.3592C96.5372 41.5643 96.4431 41.8244 96.4431 42.1395V45.3112H95.6819V41.9746C95.6819 41.6976 95.592 41.4745 95.4123 41.3053C95.2326 41.134 95.001 41.0484 94.7177 41.0484C94.5231 41.0484 94.3413 41.1002 94.1721 41.2038C94.0051 41.3074 93.8698 41.4512 93.7662 41.6352C93.6647 41.817 93.6139 42.0274 93.6139 42.2664V45.3112H92.8654ZM102.617 45.4127C102.148 45.4127 101.743 45.3091 101.402 45.1019C101.064 44.8925 100.803 44.6008 100.619 44.2265C100.437 43.8501 100.346 43.4124 100.346 42.9134C100.346 42.4144 100.437 41.9746 100.619 41.5939C100.803 41.2112 101.059 40.9131 101.387 40.6995C101.716 40.4838 102.101 40.376 102.541 40.376C102.795 40.376 103.045 40.4183 103.293 40.5029C103.54 40.5875 103.765 40.7249 103.968 40.9152C104.171 41.1034 104.333 41.3529 104.454 41.6637C104.574 41.9746 104.634 42.3573 104.634 42.8119V43.1291H100.879V42.482H103.873C103.873 42.2071 103.818 41.9619 103.708 41.7462C103.6 41.5305 103.446 41.3603 103.245 41.2355C103.046 41.1108 102.812 41.0484 102.541 41.0484C102.243 41.0484 101.985 41.1224 101.767 41.2704C101.551 41.4163 101.386 41.6066 101.269 41.8413C101.153 42.0761 101.095 42.3277 101.095 42.5962V43.0276C101.095 43.3955 101.158 43.7074 101.285 43.9632C101.414 44.217 101.593 44.4104 101.821 44.5437C102.049 44.6748 102.315 44.7403 102.617 44.7403C102.814 44.7403 102.991 44.7128 103.15 44.6578C103.311 44.6008 103.449 44.5162 103.566 44.4041C103.682 44.2899 103.772 44.1482 103.835 43.9791L104.558 44.1821C104.482 44.4274 104.354 44.643 104.175 44.8291C103.995 45.0131 103.773 45.1569 103.508 45.2605C103.244 45.362 102.947 45.4127 102.617 45.4127ZM110.018 45.4127C109.612 45.4127 109.253 45.3102 108.942 45.1051C108.631 44.8978 108.388 44.606 108.213 44.2297C108.037 43.8512 107.95 43.404 107.95 42.888C107.95 42.3763 108.037 41.9323 108.213 41.5559C108.388 41.1795 108.633 40.8888 108.945 40.6837C109.258 40.4786 109.62 40.376 110.03 40.376C110.347 40.376 110.598 40.4289 110.782 40.5346C110.968 40.6382 111.11 40.7566 111.207 40.8898C111.306 41.0209 111.383 41.1288 111.438 41.2133H111.502V38.8155H112.25V45.3112H111.527V44.5627H111.438C111.383 44.6515 111.305 44.7636 111.204 44.8989C111.102 45.0321 110.957 45.1516 110.769 45.2573C110.581 45.3609 110.33 45.4127 110.018 45.4127ZM110.119 44.7403C110.419 44.7403 110.673 44.6621 110.88 44.5056C111.087 44.347 111.245 44.1282 111.353 43.849C111.461 43.5678 111.515 43.2432 111.515 42.8753C111.515 42.5116 111.462 42.1934 111.356 41.9206C111.25 41.6458 111.094 41.4322 110.887 41.2799C110.679 41.1256 110.423 41.0484 110.119 41.0484C109.802 41.0484 109.538 41.1298 109.326 41.2926C109.117 41.4533 108.959 41.6722 108.853 41.9492C108.75 42.2241 108.698 42.5328 108.698 42.8753C108.698 43.2221 108.751 43.5372 108.857 43.8205C108.964 44.1017 109.123 44.3259 109.332 44.4929C109.544 44.6578 109.806 44.7403 110.119 44.7403ZM115.714 45.4127C115.245 45.4127 114.84 45.3091 114.499 45.1019C114.161 44.8925 113.9 44.6008 113.716 44.2265C113.534 43.8501 113.443 43.4124 113.443 42.9134C113.443 42.4144 113.534 41.9746 113.716 41.5939C113.9 41.2112 114.156 40.9131 114.484 40.6995C114.813 40.4838 115.198 40.376 115.638 40.376C115.892 40.376 116.142 40.4183 116.39 40.5029C116.637 40.5875 116.862 40.7249 117.065 40.9152C117.268 41.1034 117.43 41.3529 117.551 41.6637C117.671 41.9746 117.731 42.3573 117.731 42.8119V43.1291H113.976V42.482H116.97C116.97 42.2071 116.915 41.9619 116.805 41.7462C116.698 41.5305 116.543 41.3603 116.342 41.2355C116.144 41.1108 115.909 41.0484 115.638 41.0484C115.34 41.0484 115.082 41.1224 114.864 41.2704C114.649 41.4163 114.483 41.6066 114.366 41.8413C114.25 42.0761 114.192 42.3277 114.192 42.5962V43.0276C114.192 43.3955 114.255 43.7074 114.382 43.9632C114.511 44.217 114.69 44.4104 114.918 44.5437C115.147 44.6748 115.412 44.7403 115.714 44.7403C115.911 44.7403 116.089 44.7128 116.247 44.6578C116.408 44.6008 116.546 44.5162 116.663 44.4041C116.779 44.2899 116.869 44.1482 116.932 43.9791L117.655 44.1821C117.579 44.4274 117.451 44.643 117.272 44.8291C117.092 45.0131 116.87 45.1569 116.606 45.2605C116.341 45.362 116.044 45.4127 115.714 45.4127ZM119.565 38.8155V45.3112H118.817V38.8155H119.565ZM125.46 40.4394V41.0738H122.935V40.4394H125.46ZM123.671 39.2722H124.419V43.9157C124.419 44.1271 124.45 44.2857 124.511 44.3914C124.575 44.495 124.655 44.5648 124.752 44.6008C124.852 44.6346 124.956 44.6515 125.066 44.6515C125.149 44.6515 125.216 44.6473 125.269 44.6388C125.322 44.6282 125.364 44.6198 125.396 44.6134L125.548 45.2858C125.498 45.3049 125.427 45.3239 125.336 45.3429C125.245 45.3641 125.13 45.3747 124.99 45.3747C124.779 45.3747 124.572 45.3292 124.369 45.2383C124.168 45.1473 124.001 45.0088 123.867 44.8228C123.736 44.6367 123.671 44.402 123.671 44.1186V39.2722ZM129.602 43.3194V40.4394H130.351V45.3112H129.602V44.4866H129.551C129.437 44.734 129.26 44.9444 129.019 45.1177C128.778 45.289 128.473 45.3747 128.105 45.3747C127.801 45.3747 127.53 45.308 127.293 45.1748C127.056 45.0395 126.87 44.8365 126.735 44.5659C126.6 44.2931 126.532 43.9495 126.532 43.535V40.4394H127.281V43.4843C127.281 43.8395 127.38 44.1229 127.579 44.3343C127.78 44.5458 128.035 44.6515 128.346 44.6515C128.532 44.6515 128.722 44.6039 128.914 44.5088C129.108 44.4136 129.271 44.2677 129.402 44.0711C129.536 43.8744 129.602 43.6239 129.602 43.3194ZM133.647 45.4127C133.207 45.4127 132.822 45.308 132.49 45.0987C132.16 44.8894 131.902 44.5965 131.716 44.2201C131.532 43.8438 131.44 43.4039 131.44 42.9007C131.44 42.3932 131.532 41.9502 131.716 41.5717C131.902 41.1933 132.16 40.8993 132.49 40.69C132.822 40.4807 133.207 40.376 133.647 40.376C134.087 40.376 134.472 40.4807 134.802 40.69C135.134 40.8993 135.392 41.1933 135.576 41.5717C135.762 41.9502 135.855 42.3932 135.855 42.9007C135.855 43.4039 135.762 43.8438 135.576 44.2201C135.392 44.5965 135.134 44.8894 134.802 45.0987C134.472 45.308 134.087 45.4127 133.647 45.4127ZM133.647 44.7403C133.981 44.7403 134.256 44.6547 134.472 44.4834C134.688 44.3121 134.847 44.0869 134.951 43.8078C135.055 43.5287 135.106 43.2263 135.106 42.9007C135.106 42.5751 135.055 42.2716 134.951 41.9904C134.847 41.7092 134.688 41.4819 134.472 41.3085C134.256 41.1351 133.981 41.0484 133.647 41.0484C133.313 41.0484 133.038 41.1351 132.823 41.3085C132.607 41.4819 132.447 41.7092 132.344 41.9904C132.24 42.2716 132.188 42.5751 132.188 42.9007C132.188 43.2263 132.24 43.5287 132.344 43.8078C132.447 44.0869 132.607 44.3121 132.823 44.4834C133.038 44.6547 133.313 44.7403 133.647 44.7403ZM142.853 41.5305L142.181 41.7208C142.138 41.6087 142.076 41.4999 141.994 41.3941C141.913 41.2863 141.803 41.1975 141.664 41.1277C141.524 41.0579 141.346 41.023 141.128 41.023C140.83 41.023 140.581 41.0918 140.382 41.2292C140.186 41.3645 140.087 41.5369 140.087 41.7462C140.087 41.9323 140.155 42.0792 140.29 42.1871C140.426 42.2949 140.637 42.3848 140.925 42.4567L141.648 42.6343C142.083 42.74 142.408 42.9018 142.622 43.1196C142.835 43.3352 142.942 43.6133 142.942 43.9537C142.942 44.2328 142.862 44.4823 142.701 44.7022C142.542 44.9222 142.32 45.0955 142.035 45.2224C141.749 45.3493 141.417 45.4127 141.039 45.4127C140.542 45.4127 140.131 45.3049 139.805 45.0892C139.479 44.8735 139.273 44.5585 139.187 44.144L139.897 43.9664C139.965 44.2286 140.093 44.4252 140.281 44.5563C140.471 44.6874 140.72 44.753 141.026 44.753C141.375 44.753 141.652 44.679 141.857 44.531C142.064 44.3808 142.168 44.2011 142.168 43.9918C142.168 43.8226 142.109 43.6809 141.99 43.5668C141.872 43.4505 141.69 43.3638 141.445 43.3067L140.633 43.1164C140.187 43.0107 139.859 42.8468 139.65 42.6248C139.442 42.4006 139.339 42.1205 139.339 41.7843C139.339 41.5094 139.416 41.2662 139.57 41.0548C139.727 40.8433 139.939 40.6773 140.208 40.5568C140.479 40.4363 140.785 40.376 141.128 40.376C141.61 40.376 141.988 40.4817 142.263 40.6932C142.54 40.9046 142.737 41.1837 142.853 41.5305ZM146.134 40.4394V41.0738H143.609V40.4394H146.134ZM144.345 39.2722H145.093V43.9157C145.093 44.1271 145.124 44.2857 145.185 44.3914C145.249 44.495 145.329 44.5648 145.427 44.6008C145.526 44.6346 145.631 44.6515 145.741 44.6515C145.823 44.6515 145.891 44.6473 145.944 44.6388C145.996 44.6282 146.039 44.6198 146.07 44.6134L146.223 45.2858C146.172 45.3049 146.101 45.3239 146.01 45.3429C145.919 45.3641 145.804 45.3747 145.664 45.3747C145.453 45.3747 145.246 45.3292 145.043 45.2383C144.842 45.1473 144.675 45.0088 144.542 44.8228C144.411 44.6367 144.345 44.402 144.345 44.1186V39.2722ZM150.276 43.3194V40.4394H151.025V45.3112H150.276V44.4866H150.226C150.112 44.734 149.934 44.9444 149.693 45.1177C149.452 45.289 149.147 45.3747 148.779 45.3747C148.475 45.3747 148.204 45.308 147.967 45.1748C147.731 45.0395 147.545 44.8365 147.409 44.5659C147.274 44.2931 147.206 43.9495 147.206 43.535V40.4394H147.955V43.4843C147.955 43.8395 148.054 44.1229 148.253 44.3343C148.454 44.5458 148.71 44.6515 149.02 44.6515C149.207 44.6515 149.396 44.6039 149.588 44.5088C149.783 44.4136 149.946 44.2677 150.077 44.0711C150.21 43.8744 150.276 43.6239 150.276 43.3194ZM154.182 45.4127C153.776 45.4127 153.418 45.3102 153.107 45.1051C152.796 44.8978 152.553 44.606 152.377 44.2297C152.202 43.8512 152.114 43.404 152.114 42.888C152.114 42.3763 152.202 41.9323 152.377 41.5559C152.553 41.1795 152.797 40.8888 153.11 40.6837C153.423 40.4786 153.784 40.376 154.195 40.376C154.512 40.376 154.762 40.4289 154.946 40.5346C155.132 40.6382 155.274 40.7566 155.371 40.8898C155.471 41.0209 155.548 41.1288 155.603 41.2133H155.666V38.8155H156.415V45.3112H155.692V44.5627H155.603C155.548 44.6515 155.47 44.7636 155.368 44.8989C155.267 45.0321 155.122 45.1516 154.934 45.2573C154.745 45.3609 154.495 45.4127 154.182 45.4127ZM154.283 44.7403C154.584 44.7403 154.837 44.6621 155.045 44.5056C155.252 44.347 155.409 44.1282 155.517 43.849C155.625 43.5678 155.679 43.2432 155.679 42.8753C155.679 42.5116 155.626 42.1934 155.52 41.9206C155.415 41.6458 155.258 41.4322 155.051 41.2799C154.844 41.1256 154.588 41.0484 154.283 41.0484C153.966 41.0484 153.702 41.1298 153.491 41.2926C153.281 41.4533 153.124 41.6722 153.018 41.9492C152.914 42.2241 152.863 42.5328 152.863 42.8753C152.863 43.2221 152.915 43.5372 153.021 43.8205C153.129 44.1017 153.288 44.3259 153.497 44.4929C153.708 44.6578 153.971 44.7403 154.283 44.7403ZM157.836 45.3112V40.4394H158.585V45.3112H157.836ZM158.217 39.6275C158.071 39.6275 157.945 39.5778 157.839 39.4784C157.736 39.379 157.684 39.2596 157.684 39.12C157.684 38.9804 157.736 38.861 157.839 38.7616C157.945 38.6622 158.071 38.6125 158.217 38.6125C158.363 38.6125 158.487 38.6622 158.591 38.7616C158.697 38.861 158.75 38.9804 158.75 39.12C158.75 39.2596 158.697 39.379 158.591 39.4784C158.487 39.5778 158.363 39.6275 158.217 39.6275ZM161.881 45.4127C161.441 45.4127 161.055 45.308 160.724 45.0987C160.394 44.8894 160.136 44.5965 159.95 44.2201C159.766 43.8438 159.674 43.4039 159.674 42.9007C159.674 42.3932 159.766 41.9502 159.95 41.5717C160.136 41.1933 160.394 40.8993 160.724 40.69C161.055 40.4807 161.441 40.376 161.881 40.376C162.321 40.376 162.706 40.4807 163.036 40.69C163.368 40.8993 163.626 41.1933 163.81 41.5717C163.996 41.9502 164.089 42.3932 164.089 42.9007C164.089 43.4039 163.996 43.8438 163.81 44.2201C163.626 44.5965 163.368 44.8894 163.036 45.0987C162.706 45.308 162.321 45.4127 161.881 45.4127ZM161.881 44.7403C162.215 44.7403 162.49 44.6547 162.706 44.4834C162.922 44.3121 163.081 44.0869 163.185 43.8078C163.288 43.5287 163.34 43.2263 163.34 42.9007C163.34 42.5751 163.288 42.2716 163.185 41.9904C163.081 41.7092 162.922 41.4819 162.706 41.3085C162.49 41.1351 162.215 41.0484 161.881 41.0484C161.547 41.0484 161.272 41.1351 161.057 41.3085C160.841 41.4819 160.681 41.7092 160.578 41.9904C160.474 42.2716 160.422 42.5751 160.422 42.9007C160.422 43.2263 160.474 43.5287 160.578 43.8078C160.681 44.0869 160.841 44.3121 161.057 44.4834C161.272 44.6547 161.547 44.7403 161.881 44.7403Z" fill="#64748B"/>
<defs>
<filter id="filter0_d_141_12569" x="0" y="0" width="236" height="127" filterUnits="userSpaceOnUse" color-interpolation-filters="sRGB">
<feFlood flood-opacity="0" result="BackgroundImageFix"/>
<feColorMatrix in="SourceAlpha" type="matrix" values="0 0 0 0 0 0 0 0 0 0 0 0 0 0 0 0 0 0 127 0" result="hardAlpha"/>
<feOffset dy="4"/>
<feGaussianBlur stdDeviation="2"/>
<feComposite in2="hardAlpha" operator="out"/>
<feColorMatrix type="matrix" values="0 0 0 0 0.392157 0 0 0 0 0.454902 0 0 0 0 0.545098 0 0 0 0.05 0"/>
<feBlend mode="normal" in2="BackgroundImageFix" result="effect1_dropShadow_141_12569"/>
<feBlend mode="normal" in="SourceGraphic" in2="effect1_dropShadow_141_12569" result="shape"/>
</filter>
<filter id="filter1_d_141_12569" x="18.7241" y="75.5034" width="198.552" height="25.5189" filterUnits="userSpaceOnUse" color-interpolation-filters="sRGB">
<feFlood flood-opacity="0" result="BackgroundImageFix"/>
<feColorMatrix in="SourceAlpha" type="matrix" values="0 0 0 0 0 0 0 0 0 0 0 0 0 0 0 0 0 0 127 0" result="hardAlpha"/>
<feOffset dy="0.637971"/>
<feGaussianBlur stdDeviation="0.637971"/>
<feColorMatrix type="matrix" values="0 0 0 0 0.0627451 0 0 0 0 0.0941176 0 0 0 0 0.156863 0 0 0 0.05 0"/>
<feBlend mode="normal" in2="BackgroundImageFix" result="effect1_dropShadow_141_12569"/>
<feBlend mode="normal" in="SourceGraphic" in2="effect1_dropShadow_141_12569" result="shape"/>
</filter>
</defs>
</svg>
