<svg width="51" height="51" viewBox="0 0 51 51" fill="none" xmlns="http://www.w3.org/2000/svg">
<path d="M0 0H51V51H20C8.9543 51 0 42.0457 0 31V0Z" fill="#4F46E5"/>
<path fill-rule="evenodd" clip-rule="evenodd" d="M20.3775 18.5H29.2875C30.4053 18.5017 31.4768 18.9469 32.2666 19.7379C33.0564 20.5288 33.5 21.6009 33.5 22.7188V34.4375C34.4946 34.4375 35.4484 34.0424 36.1517 33.3392C36.8549 32.6359 37.25 31.6821 37.25 30.6875V18.635C37.25 16.7537 35.8438 15.1212 33.92 14.96C33.6397 14.9372 33.3593 14.9164 33.0788 14.8975C32.7623 14.2879 32.2846 13.7768 31.6976 13.4202C31.1106 13.0635 30.4369 12.8749 29.75 12.875H27.875C27.1881 12.8749 26.5145 13.0635 25.9274 13.4202C25.3404 13.7768 24.8627 14.2879 24.5463 14.8975C24.265 14.9163 23.9838 14.9375 23.705 14.96C21.8275 15.1187 20.4425 16.6775 20.3775 18.5ZM27.875 14.75C27.3777 14.75 26.9008 14.9475 26.5492 15.2992C26.1975 15.6508 26 16.1277 26 16.625H31.625C31.625 16.1277 31.4275 15.6508 31.0758 15.2992C30.7242 14.9475 30.2473 14.75 29.75 14.75H27.875Z" fill="white"/>
<path fill-rule="evenodd" clip-rule="evenodd" d="M14.75 22.7188C14.75 21.4237 15.8 20.375 17.0938 20.375H29.2812C30.5763 20.375 31.625 21.425 31.625 22.7188V36.7812C31.625 38.075 30.575 39.125 29.2812 39.125H17.0938C16.4721 39.125 15.876 38.8781 15.4365 38.4385C14.9969 37.999 14.75 37.4029 14.75 36.7812V22.7188ZM18.5 26C18.5 25.7514 18.5988 25.5129 18.7746 25.3371C18.9504 25.1613 19.1889 25.0625 19.4375 25.0625H19.4475C19.6961 25.0625 19.9346 25.1613 20.1104 25.3371C20.2862 25.5129 20.385 25.7514 20.385 26V26.01C20.385 26.2586 20.2862 26.4971 20.1104 26.6729C19.9346 26.8487 19.6961 26.9475 19.4475 26.9475H19.4375C19.1889 26.9475 18.9504 26.8487 18.7746 26.6729C18.5988 26.4971 18.5 26.2586 18.5 26.01V26ZM21.3125 26C21.3125 25.7514 21.4113 25.5129 21.5871 25.3371C21.7629 25.1613 22.0014 25.0625 22.25 25.0625H26.9375C27.1861 25.0625 27.4246 25.1613 27.6004 25.3371C27.7762 25.5129 27.875 25.7514 27.875 26C27.875 26.2486 27.7762 26.4871 27.6004 26.6629C27.4246 26.8387 27.1861 26.9375 26.9375 26.9375H22.25C22.0014 26.9375 21.7629 26.8387 21.5871 26.6629C21.4113 26.4871 21.3125 26.2486 21.3125 26ZM18.5 29.75C18.5 29.5014 18.5988 29.2629 18.7746 29.0871C18.9504 28.9113 19.1889 28.8125 19.4375 28.8125H19.4475C19.6961 28.8125 19.9346 28.9113 20.1104 29.0871C20.2862 29.2629 20.385 29.5014 20.385 29.75V29.76C20.385 30.0086 20.2862 30.2471 20.1104 30.4229C19.9346 30.5987 19.6961 30.6975 19.4475 30.6975H19.4375C19.1889 30.6975 18.9504 30.5987 18.7746 30.4229C18.5988 30.2471 18.5 30.0086 18.5 29.76V29.75ZM21.3125 29.75C21.3125 29.5014 21.4113 29.2629 21.5871 29.0871C21.7629 28.9113 22.0014 28.8125 22.25 28.8125H26.9375C27.1861 28.8125 27.4246 28.9113 27.6004 29.0871C27.7762 29.2629 27.875 29.5014 27.875 29.75C27.875 29.9986 27.7762 30.2371 27.6004 30.4129C27.4246 30.5887 27.1861 30.6875 26.9375 30.6875H22.25C22.0014 30.6875 21.7629 30.5887 21.5871 30.4129C21.4113 30.2371 21.3125 29.9986 21.3125 29.75ZM18.5 33.5C18.5 33.2514 18.5988 33.0129 18.7746 32.8371C18.9504 32.6613 19.1889 32.5625 19.4375 32.5625H19.4475C19.6961 32.5625 19.9346 32.6613 20.1104 32.8371C20.2862 33.0129 20.385 33.2514 20.385 33.5V33.51C20.385 33.7586 20.2862 33.9971 20.1104 34.1729C19.9346 34.3487 19.6961 34.4475 19.4475 34.4475H19.4375C19.1889 34.4475 18.9504 34.3487 18.7746 34.1729C18.5988 33.9971 18.5 33.7586 18.5 33.51V33.5ZM21.3125 33.5C21.3125 33.2514 21.4113 33.0129 21.5871 32.8371C21.7629 32.6613 22.0014 32.5625 22.25 32.5625H26.9375C27.1861 32.5625 27.4246 32.6613 27.6004 32.8371C27.7762 33.0129 27.875 33.2514 27.875 33.5C27.875 33.7486 27.7762 33.9871 27.6004 34.1629C27.4246 34.3387 27.1861 34.4375 26.9375 34.4375H22.25C22.0014 34.4375 21.7629 34.3387 21.5871 34.1629C21.4113 33.9871 21.3125 33.7486 21.3125 33.5Z" fill="white"/>
</svg>
