<svg width="354" height="78" viewBox="0 0 354 78" fill="none" xmlns="http://www.w3.org/2000/svg">
<path d="M25.3149 77.8871C10.0582 77.8871 0 67.2764 0 49.6672C0 32.0579 10.0582 21.4472 25.4279 21.4472C38.8765 21.4472 47.3525 29.3488 49.4997 40.2981L42.3799 43.3459C41.2497 34.2026 35.8251 27.5427 25.4279 27.5427C14.6917 27.5427 7.57187 35.2185 7.57187 49.6672C7.57187 64.0029 14.6917 71.6787 25.4279 71.6787C35.8251 71.6787 41.2497 65.1317 42.3799 55.9884L49.4997 59.0362C47.3525 69.9855 38.8765 77.8871 25.3149 77.8871Z" fill="black"/>
<path d="M69.337 76.7583H61.8781V1.1288H69.337V76.7583Z" fill="black"/>
<path d="M95.7882 77.8871C86.8602 77.8871 81.7746 73.0333 81.7746 65.809C81.7746 58.6975 87.0862 54.1823 94.6581 50.7959L115.226 41.4269V40.9754C115.226 32.848 111.384 28.1071 102.569 28.1071C94.4321 28.1071 88.5554 32.7352 85.7301 38.7178L80.5315 33.5253C83.9219 27.8813 91.8328 21.4472 103.36 21.4472C116.018 21.4472 122.572 28.7844 122.572 40.8625V66.2605C122.572 69.0825 123.815 70.0984 126.415 70.0984H129.579V76.7583H124.494C119.069 76.7583 115.453 74.3878 115.453 67.5022V61.7453C113.644 69.534 106.637 77.8871 95.7882 77.8871ZM89.2335 64.7931C89.2335 69.3083 92.6239 71.6787 97.9355 71.6787C107.994 71.6787 115.453 63.89 115.453 56.5528V46.958L97.8225 55.3111C91.9458 58.0203 89.2335 60.7294 89.2335 64.7931Z" fill="black"/>
<path d="M160.7 77.8871C149.625 77.8871 139.228 72.9204 135.95 62.3097L141.488 58.1331C143.183 65.4703 149.964 71.5658 160.926 71.5658C168.159 71.5658 172.905 68.631 172.905 62.987C172.905 57.343 168.046 55.3111 160.7 53.6179L153.354 51.9247C145.556 50.0058 137.532 46.3936 137.532 36.686C137.532 27.3169 144.991 21.4472 156.18 21.4472C167.707 21.4472 175.279 27.2041 177.991 34.8799L172.34 39.0564C169.854 31.7192 164.203 27.6556 155.728 27.6556C149.173 27.6556 144.539 30.7033 144.539 36.3473C144.539 41.9913 148.608 44.0232 156.519 45.9421L163.751 47.7482C175.053 50.5702 179.573 55.1983 179.573 62.8741C179.573 73.259 170.758 77.8871 160.7 77.8871Z" fill="black"/>
<path d="M211.578 77.8871C200.503 77.8871 190.106 72.9204 186.828 62.3097L192.366 58.1331C194.061 65.4703 200.842 71.5658 211.804 71.5658C219.037 71.5658 223.783 68.631 223.783 62.987C223.783 57.343 218.924 55.3111 211.578 53.6179L204.232 51.9247C196.434 50.0058 188.41 46.3936 188.41 36.686C188.41 27.3169 195.869 21.4472 207.057 21.4472C218.585 21.4472 226.157 27.2041 228.869 34.8799L223.218 39.0564C220.732 31.7192 215.081 27.6556 206.605 27.6556C200.051 27.6556 195.417 30.7033 195.417 36.3473C195.417 41.9913 199.486 44.0232 207.397 45.9421L214.629 47.7482C225.931 50.5702 230.451 55.1983 230.451 62.8741C230.451 73.259 221.636 77.8871 211.578 77.8871Z" fill="black"/>
<path d="M250.445 12.8683H242.986V1.1288H250.445V12.8683ZM250.445 76.7583H242.986V22.576H250.445V76.7583Z" fill="black"/>
<path d="M277.461 76.7583H270.115V28.3328H261.187V22.576H270.115V16.2547C270.115 5.30535 276.896 0 286.954 0C295.317 0 301.307 4.40231 303.793 7.56295L299.725 12.8683C297.238 9.36903 292.266 6.2084 286.615 6.2084C280.964 6.2084 277.461 9.25614 277.461 16.4805V22.576H307.409V76.7583H299.951V28.3328H277.461V76.7583Z" fill="black"/>
<path d="M339.308 78C331.058 78 324.617 72.8075 324.617 62.987V28.3328H315.802V22.576H324.617V14.7873L331.962 9.25615V22.576H350.158V28.3328H331.962V60.9551C331.962 68.7438 336.031 70.8886 340.777 70.8886C345.637 70.8886 349.593 67.3893 351.401 63.5514L354 70.7757C351.627 74.7265 346.315 78 339.308 78Z" fill="black"/>
</svg>
