<svg width="51" height="51" viewBox="0 0 51 51" fill="none" xmlns="http://www.w3.org/2000/svg">
<path d="M0 0H51V51H20C8.9543 51 0 42.0457 0 31V0Z" fill="#4F46E5"/>
<path fill-rule="evenodd" clip-rule="evenodd" d="M23.0912 21.216C26.2113 17.2066 31.0863 14.625 36.5625 14.625C36.778 14.625 36.9847 14.7106 37.137 14.863C37.2894 15.0153 37.375 15.222 37.375 15.4375C37.375 20.9148 34.7934 25.7888 30.784 28.9098C30.9507 29.9544 30.8889 31.0228 30.6026 32.0411C30.3164 33.0595 29.8127 34.0036 29.1261 34.8084C28.4396 35.6132 27.5866 36.2594 26.6261 36.7025C25.6656 37.1456 24.6203 37.3751 23.5625 37.375C23.347 37.375 23.1403 37.2894 22.988 37.137C22.8356 36.9847 22.75 36.778 22.75 36.5625V32.0873C21.6969 31.2557 20.745 30.3034 19.9138 29.25H15.4375C15.222 29.25 15.0153 29.1644 14.863 29.012C14.7106 28.8597 14.625 28.653 14.625 28.4375C14.6249 27.3796 14.8544 26.3342 15.2976 25.3736C15.7407 24.413 16.3871 23.56 17.192 22.8734C17.9969 22.1869 18.9411 21.6831 19.9596 21.397C20.9781 21.1108 22.0466 21.0491 23.0912 21.216ZM29.25 20.3125C28.6035 20.3125 27.9835 20.5693 27.5264 21.0264C27.0693 21.4835 26.8125 22.1035 26.8125 22.75C26.8125 23.3965 27.0693 24.0165 27.5264 24.4736C27.9835 24.9307 28.6035 25.1875 29.25 25.1875C29.8965 25.1875 30.5165 24.9307 30.9736 24.4736C31.4307 24.0165 31.6875 23.3965 31.6875 22.75C31.6875 22.1035 31.4307 21.4835 30.9736 21.0264C30.5165 20.5693 29.8965 20.3125 29.25 20.3125Z" fill="white"/>
<path d="M18.6983 31.6788C18.7839 31.615 18.8561 31.535 18.9107 31.4433C18.9653 31.3516 19.0014 31.25 19.0168 31.1444C19.0322 31.0388 19.0266 30.9311 19.0004 30.8277C18.9742 30.7242 18.9279 30.6269 18.8641 30.5413C18.8003 30.4557 18.7202 30.3836 18.6285 30.3289C18.5368 30.2743 18.4353 30.2382 18.3296 30.2228C18.224 30.2075 18.1164 30.213 18.0129 30.2392C17.9094 30.2654 17.8121 30.3118 17.7266 30.3756C16.8955 30.9937 16.2493 31.8274 15.8579 32.7863C15.4665 33.7452 15.3447 34.7929 15.5057 35.8161C15.5319 35.9865 15.6116 36.1441 15.7334 36.2662C15.8551 36.3884 16.0125 36.4686 16.1828 36.4953C17.2061 36.6562 18.2538 36.5343 19.2128 36.1427C20.1717 35.751 21.0053 35.1046 21.6233 34.2734C21.6892 34.188 21.7374 34.0904 21.7652 33.9863C21.7929 33.8821 21.7997 33.7735 21.7851 33.6667C21.7704 33.5599 21.7347 33.457 21.6799 33.3642C21.6251 33.2713 21.5524 33.1903 21.466 33.1258C21.3796 33.0614 21.2813 33.0147 21.1767 32.9886C21.0721 32.9626 20.9633 32.9576 20.8568 32.9739C20.7502 32.9903 20.648 33.0277 20.556 33.0839C20.4641 33.1402 20.3842 33.2142 20.3211 33.3016C19.9434 33.8097 19.4519 34.2223 18.886 34.5064C18.3201 34.7904 17.6956 34.9381 17.0625 34.9375C17.0625 33.605 17.7038 32.4209 18.6983 31.6788Z" fill="white"/>
</svg>
