<svg width="218" height="86" viewBox="0 0 218 86" fill="none" xmlns="http://www.w3.org/2000/svg">
<g filter="url(#filter0_d_108_6684)">
<path d="M13.8168 22.3643L10.6631 6.11451L25.143 14.1353L18.0104 16.2272L13.8168 22.3643Z" fill="black"/>
<path d="M13.8168 22.3643L10.6631 6.11451L25.143 14.1353L18.0104 16.2272L13.8168 22.3643Z" stroke="white"/>
</g>
<g filter="url(#filter1_bd_108_6684)">
<path d="M23 25.0769C23 24.0728 23 23.5707 23.1762 23.1792C23.3768 22.7335 23.7335 22.3768 24.1792 22.1762C24.5707 22 25.0728 22 26.0769 22H175C186.046 22 195 30.9543 195 42V42C195 53.0457 186.046 62 175 62H59.9231C47.8731 62 41.8481 62 37.1501 59.8856C31.8025 57.4788 27.5212 53.1975 25.1144 47.8499C23 43.1519 23 37.1269 23 25.0769V25.0769Z" fill="url(#paint0_linear_108_6684)" fill-opacity="0.5" style="mix-blend-mode:overlay"/>
<path opacity="0.8" d="M49.6548 36.8182V47H48.1186V36.8182H49.6548ZM57.495 41.228L56.1477 41.4666C56.0914 41.2943 56.0019 41.1302 55.8793 40.9744C55.7599 40.8187 55.5975 40.6911 55.392 40.5916C55.1866 40.4922 54.9297 40.4425 54.6214 40.4425C54.2005 40.4425 53.8492 40.5369 53.5675 40.7259C53.2857 40.9115 53.1449 41.1518 53.1449 41.4467C53.1449 41.7019 53.2393 41.9074 53.4283 42.0632C53.6172 42.219 53.9221 42.3466 54.343 42.446L55.5561 42.7244C56.2588 42.8868 56.7824 43.1371 57.1271 43.4751C57.4718 43.8132 57.6442 44.2524 57.6442 44.7926C57.6442 45.25 57.5116 45.6577 57.2464 46.0156C56.9846 46.3703 56.6184 46.6487 56.1477 46.8509C55.6804 47.053 55.1385 47.1541 54.522 47.1541C53.6669 47.1541 52.9692 46.9718 52.429 46.6072C51.8887 46.2393 51.5573 45.7173 51.4347 45.0412L52.8714 44.8224C52.9609 45.197 53.1449 45.4804 53.4233 45.6726C53.7017 45.8615 54.0646 45.956 54.5121 45.956C54.9993 45.956 55.3887 45.8549 55.6804 45.6527C55.9721 45.4472 56.1179 45.197 56.1179 44.902C56.1179 44.6634 56.0284 44.4628 55.8494 44.3004C55.6738 44.138 55.4036 44.0154 55.0391 43.9325L53.7464 43.6491C53.0339 43.4867 52.5069 43.2282 52.1655 42.8736C51.8274 42.5189 51.6584 42.0698 51.6584 41.5263C51.6584 41.0755 51.7843 40.6811 52.0362 40.343C52.2881 40.005 52.6361 39.7415 53.0803 39.5526C53.5244 39.3603 54.0331 39.2642 54.6065 39.2642C55.4318 39.2642 56.0814 39.4432 56.5554 39.8011C57.0294 40.1558 57.3426 40.6314 57.495 41.228ZM62.4952 47.1541C61.7561 47.1541 61.1197 46.9867 60.5861 46.652C60.0558 46.3139 59.6481 45.8482 59.3631 45.255C59.0781 44.6617 58.9355 43.9822 58.9355 43.2166C58.9355 42.4411 59.0814 41.7566 59.373 41.1634C59.6647 40.5668 60.0757 40.1011 60.606 39.7663C61.1363 39.4316 61.7611 39.2642 62.4803 39.2642C63.0603 39.2642 63.5774 39.3719 64.0314 39.5874C64.4855 39.7995 64.8517 40.0978 65.1301 40.4822C65.4119 40.8667 65.5792 41.3158 65.6323 41.8295H64.1855C64.106 41.4716 63.9237 41.1634 63.6387 40.9048C63.3569 40.6463 62.9791 40.517 62.5051 40.517C62.0909 40.517 61.7279 40.6264 61.4164 40.8452C61.1081 41.0606 60.8678 41.3688 60.6955 41.7699C60.5231 42.1676 60.437 42.6383 60.437 43.1818C60.437 43.7386 60.5215 44.2192 60.6905 44.6236C60.8596 45.0279 61.0982 45.3411 61.4064 45.5632C61.718 45.7853 62.0842 45.8963 62.5051 45.8963C62.7869 45.8963 63.0421 45.8449 63.2708 45.7422C63.5028 45.6361 63.6967 45.4853 63.8525 45.2898C64.0115 45.0942 64.1226 44.8589 64.1855 44.5838H65.6323C65.5792 45.0777 65.4185 45.5185 65.15 45.9062C64.8816 46.294 64.522 46.599 64.0712 46.821C63.6238 47.0431 63.0984 47.1541 62.4952 47.1541ZM67.2219 47V39.3636H68.6587V40.5767H68.7383C68.8775 40.1657 69.1228 39.8426 69.4741 39.6072C69.8287 39.3686 70.2298 39.2493 70.6772 39.2493C70.77 39.2493 70.8794 39.2526 71.0053 39.2592C71.1346 39.2659 71.2357 39.2741 71.3086 39.2841V40.706C71.2489 40.6894 71.1429 40.6712 70.9904 40.6513C70.8379 40.6281 70.6855 40.6165 70.533 40.6165C70.1817 40.6165 69.8685 40.6911 69.5934 40.8402C69.3216 40.986 69.1062 41.1899 68.9471 41.4517C68.788 41.7102 68.7085 42.0052 68.7085 42.3366V47H67.2219ZM72.595 47V39.3636H74.0815V47H72.595ZM73.3457 38.1854C73.0872 38.1854 72.8651 38.0992 72.6795 37.9268C72.4972 37.7512 72.4061 37.5424 72.4061 37.3004C72.4061 37.0552 72.4972 36.8464 72.6795 36.674C72.8651 36.4983 73.0872 36.4105 73.3457 36.4105C73.6042 36.4105 73.8246 36.4983 74.0069 36.674C74.1925 36.8464 74.2853 37.0552 74.2853 37.3004C74.2853 37.5424 74.1925 37.7512 74.0069 37.9268C73.8246 38.0992 73.6042 38.1854 73.3457 38.1854ZM82.614 39.3636L79.8448 47H78.2539L75.4798 39.3636H77.0756L79.0096 45.2401H79.0891L81.0181 39.3636H82.614ZM84.011 47V39.3636H85.4975V47H84.011ZM84.7617 38.1854C84.5032 38.1854 84.2811 38.0992 84.0955 37.9268C83.9132 37.7512 83.8221 37.5424 83.8221 37.3004C83.8221 37.0552 83.9132 36.8464 84.0955 36.674C84.2811 36.4983 84.5032 36.4105 84.7617 36.4105C85.0202 36.4105 85.2406 36.4983 85.4229 36.674C85.6085 36.8464 85.7013 37.0552 85.7013 37.3004C85.7013 37.5424 85.6085 37.7512 85.4229 37.9268C85.2406 38.0992 85.0202 38.1854 84.7617 38.1854ZM91.062 39.3636V40.5568H86.8908V39.3636H91.062ZM88.0094 37.5341H89.4959V44.7578C89.4959 45.0462 89.539 45.2633 89.6252 45.4091C89.7114 45.5516 89.8224 45.6494 89.9583 45.7024C90.0975 45.7521 90.2483 45.777 90.4107 45.777C90.53 45.777 90.6344 45.7687 90.7239 45.7521C90.8134 45.7356 90.883 45.7223 90.9327 45.7124L91.2012 46.9403C91.115 46.9735 90.9924 47.0066 90.8333 47.0398C90.6742 47.0762 90.4753 47.0961 90.2367 47.0994C89.8456 47.1061 89.481 47.0365 89.1429 46.8906C88.8049 46.7448 88.5314 46.5194 88.3226 46.2145C88.1138 45.9096 88.0094 45.5268 88.0094 45.0661V37.5341ZM92.7063 47V39.3636H94.1928V47H92.7063ZM93.457 38.1854C93.1985 38.1854 92.9764 38.0992 92.7908 37.9268C92.6085 37.7512 92.5174 37.5424 92.5174 37.3004C92.5174 37.0552 92.6085 36.8464 92.7908 36.674C92.9764 36.4983 93.1985 36.4105 93.457 36.4105C93.7156 36.4105 93.936 36.4983 94.1183 36.674C94.3039 36.8464 94.3967 37.0552 94.3967 37.3004C94.3967 37.5424 94.3039 37.7512 94.1183 37.9268C93.936 38.0992 93.7156 38.1854 93.457 38.1854ZM102.12 47.169C101.636 47.169 101.199 47.0795 100.808 46.9006C100.416 46.7183 100.107 46.4548 99.8778 46.1101C99.6525 45.7654 99.5398 45.3428 99.5398 44.8423C99.5398 44.4115 99.6226 44.0568 99.7884 43.7784C99.9541 43.5 100.178 43.2796 100.46 43.1172C100.741 42.9548 101.056 42.8321 101.404 42.7493C101.752 42.6664 102.107 42.6035 102.468 42.5604C102.925 42.5073 103.297 42.4643 103.582 42.4311C103.867 42.3946 104.074 42.3366 104.203 42.2571C104.332 42.1776 104.397 42.0483 104.397 41.8693V41.8345C104.397 41.4003 104.274 41.0639 104.029 40.8253C103.787 40.5866 103.426 40.4673 102.945 40.4673C102.445 40.4673 102.05 40.5784 101.762 40.8004C101.477 41.0192 101.28 41.2628 101.17 41.5312L99.7734 41.2131C99.9392 40.7491 100.181 40.3745 100.499 40.0895C100.821 39.8011 101.19 39.5923 101.608 39.4631C102.026 39.3305 102.465 39.2642 102.925 39.2642C103.23 39.2642 103.554 39.3007 103.895 39.3736C104.24 39.4432 104.561 39.5724 104.859 39.7614C105.161 39.9503 105.408 40.2204 105.6 40.5717C105.792 40.9197 105.888 41.3722 105.888 41.929V47H104.437V45.956H104.377C104.281 46.1482 104.137 46.3371 103.945 46.5227C103.752 46.7083 103.505 46.8625 103.204 46.9851C102.902 47.1077 102.541 47.169 102.12 47.169ZM102.443 45.9759C102.854 45.9759 103.205 45.8946 103.497 45.7322C103.792 45.5698 104.016 45.3577 104.168 45.0959C104.324 44.8307 104.402 44.5473 104.402 44.2457V43.2614C104.349 43.3144 104.246 43.3641 104.094 43.4105C103.945 43.4536 103.774 43.4917 103.582 43.5249C103.389 43.5547 103.202 43.5829 103.02 43.6094C102.838 43.6326 102.685 43.6525 102.562 43.669C102.274 43.7055 102.011 43.7668 101.772 43.853C101.537 43.9392 101.348 44.0634 101.205 44.2259C101.066 44.3849 100.996 44.5971 100.996 44.8622C100.996 45.2301 101.132 45.5085 101.404 45.6974C101.676 45.883 102.022 45.9759 102.443 45.9759ZM109.355 36.8182V47H107.868V36.8182H109.355ZM112.841 36.8182V47H111.355V36.8182H112.841ZM117.063 47.169C116.579 47.169 116.142 47.0795 115.751 46.9006C115.36 46.7183 115.05 46.4548 114.821 46.1101C114.596 45.7654 114.483 45.3428 114.483 44.8423C114.483 44.4115 114.566 44.0568 114.732 43.7784C114.897 43.5 115.121 43.2796 115.403 43.1172C115.685 42.9548 115.999 42.8321 116.347 42.7493C116.695 42.6664 117.05 42.6035 117.411 42.5604C117.869 42.5073 118.24 42.4643 118.525 42.4311C118.81 42.3946 119.017 42.3366 119.146 42.2571C119.276 42.1776 119.34 42.0483 119.34 41.8693V41.8345C119.34 41.4003 119.218 41.0639 118.972 40.8253C118.731 40.5866 118.369 40.4673 117.889 40.4673C117.388 40.4673 116.994 40.5784 116.705 40.8004C116.42 41.0192 116.223 41.2628 116.114 41.5312L114.717 41.2131C114.883 40.7491 115.124 40.3745 115.443 40.0895C115.764 39.8011 116.134 39.5923 116.551 39.4631C116.969 39.3305 117.408 39.2642 117.869 39.2642C118.174 39.2642 118.497 39.3007 118.838 39.3736C119.183 39.4432 119.504 39.5724 119.803 39.7614C120.104 39.9503 120.351 40.2204 120.544 40.5717C120.736 40.9197 120.832 41.3722 120.832 41.929V47H119.38V45.956H119.32C119.224 46.1482 119.08 46.3371 118.888 46.5227C118.696 46.7083 118.449 46.8625 118.147 46.9851C117.846 47.1077 117.484 47.169 117.063 47.169ZM117.387 45.9759C117.798 45.9759 118.149 45.8946 118.441 45.7322C118.735 45.5698 118.959 45.3577 119.112 45.0959C119.267 44.8307 119.345 44.5473 119.345 44.2457V43.2614C119.292 43.3144 119.19 43.3641 119.037 43.4105C118.888 43.4536 118.717 43.4917 118.525 43.5249C118.333 43.5547 118.146 43.5829 117.963 43.6094C117.781 43.6326 117.628 43.6525 117.506 43.669C117.218 43.7055 116.954 43.7668 116.715 43.853C116.48 43.9392 116.291 44.0634 116.149 44.2259C116.009 44.3849 115.94 44.5971 115.94 44.8622C115.94 45.2301 116.076 45.5085 116.347 45.6974C116.619 45.883 116.966 45.9759 117.387 45.9759ZM128.003 36.8182V47H126.517V36.8182H128.003ZM133.294 47.1541C132.542 47.1541 131.894 46.9934 131.35 46.6719C130.81 46.3471 130.393 45.8913 130.098 45.3047C129.806 44.7147 129.66 44.0237 129.66 43.2315C129.66 42.4493 129.806 41.7599 130.098 41.1634C130.393 40.5668 130.804 40.1011 131.331 39.7663C131.861 39.4316 132.481 39.2642 133.19 39.2642C133.621 39.2642 134.038 39.3355 134.443 39.478C134.847 39.6205 135.21 39.8442 135.532 40.1491C135.853 40.4541 136.107 40.8501 136.292 41.3374C136.478 41.8213 136.571 42.4096 136.571 43.1023V43.6293H130.5V42.5156H135.114C135.114 42.1245 135.034 41.7782 134.875 41.4766C134.716 41.1716 134.493 40.9313 134.204 40.7557C133.919 40.58 133.584 40.4922 133.2 40.4922C132.782 40.4922 132.418 40.5949 132.106 40.8004C131.798 41.0026 131.559 41.2678 131.39 41.5959C131.225 41.9207 131.142 42.2737 131.142 42.6548V43.5249C131.142 44.0353 131.231 44.4695 131.41 44.8274C131.592 45.1854 131.846 45.4588 132.171 45.6477C132.496 45.8333 132.875 45.9261 133.309 45.9261C133.591 45.9261 133.848 45.8864 134.08 45.8068C134.312 45.724 134.512 45.6013 134.681 45.4389C134.85 45.2765 134.98 45.076 135.069 44.8374L136.476 45.0909C136.364 45.5052 136.161 45.8681 135.87 46.1797C135.581 46.4879 135.218 46.7282 134.781 46.9006C134.347 47.0696 133.851 47.1541 133.294 47.1541ZM138.061 47V45.9808L142.197 40.7259V40.6562H138.195V39.3636H144.052V40.4474L140.074 45.6378V45.7074H144.191V47H138.061ZM145.945 47V39.3636H147.431V47H145.945ZM146.695 38.1854C146.437 38.1854 146.215 38.0992 146.029 37.9268C145.847 37.7512 145.756 37.5424 145.756 37.3004C145.756 37.0552 145.847 36.8464 146.029 36.674C146.215 36.4983 146.437 36.4105 146.695 36.4105C146.954 36.4105 147.174 36.4983 147.357 36.674C147.542 36.8464 147.635 37.0552 147.635 37.3004C147.635 37.5424 147.542 37.7512 147.357 37.9268C147.174 38.0992 146.954 38.1854 146.695 38.1854ZM152.648 47.1541C151.932 47.1541 151.307 46.9901 150.773 46.6619C150.24 46.3338 149.825 45.8748 149.53 45.2848C149.235 44.6948 149.088 44.0054 149.088 43.2166C149.088 42.4245 149.235 41.7318 149.53 41.1385C149.825 40.5452 150.24 40.0845 150.773 39.7564C151.307 39.4283 151.932 39.2642 152.648 39.2642C153.363 39.2642 153.988 39.4283 154.522 39.7564C155.055 40.0845 155.47 40.5452 155.765 41.1385C156.06 41.7318 156.207 42.4245 156.207 43.2166C156.207 44.0054 156.06 44.6948 155.765 45.2848C155.47 45.8748 155.055 46.3338 154.522 46.6619C153.988 46.9901 153.363 47.1541 152.648 47.1541ZM152.653 45.9062C153.117 45.9062 153.501 45.7836 153.806 45.5384C154.111 45.2931 154.336 44.9666 154.482 44.5589C154.631 44.1513 154.706 43.7022 154.706 43.2116C154.706 42.7244 154.631 42.277 154.482 41.8693C154.336 41.4583 154.111 41.1286 153.806 40.88C153.501 40.6314 153.117 40.5071 152.653 40.5071C152.185 40.5071 151.797 40.6314 151.489 40.88C151.184 41.1286 150.957 41.4583 150.808 41.8693C150.662 42.277 150.589 42.7244 150.589 43.2116C150.589 43.7022 150.662 44.1513 150.808 44.5589C150.957 44.9666 151.184 45.2931 151.489 45.5384C151.797 45.7836 152.185 45.9062 152.653 45.9062ZM159.353 42.4659V47H157.866V39.3636H159.293V40.6065H159.388C159.563 40.2022 159.839 39.8774 160.213 39.6321C160.591 39.3868 161.067 39.2642 161.64 39.2642C162.16 39.2642 162.616 39.3736 163.007 39.5923C163.398 39.8078 163.701 40.1293 163.917 40.5568C164.132 40.9844 164.24 41.513 164.24 42.1428V47H162.754V42.3217C162.754 41.7682 162.609 41.3357 162.321 41.0241C162.033 40.7093 161.637 40.5518 161.133 40.5518C160.788 40.5518 160.482 40.6264 160.213 40.7756C159.948 40.9247 159.737 41.1435 159.582 41.4318C159.429 41.7169 159.353 42.0616 159.353 42.4659ZM169.525 47.1541C168.772 47.1541 168.125 46.9934 167.581 46.6719C167.041 46.3471 166.623 45.8913 166.328 45.3047C166.036 44.7147 165.891 44.0237 165.891 43.2315C165.891 42.4493 166.036 41.7599 166.328 41.1634C166.623 40.5668 167.034 40.1011 167.561 39.7663C168.091 39.4316 168.711 39.2642 169.42 39.2642C169.851 39.2642 170.269 39.3355 170.673 39.478C171.078 39.6205 171.441 39.8442 171.762 40.1491C172.084 40.4541 172.337 40.8501 172.523 41.3374C172.708 41.8213 172.801 42.4096 172.801 43.1023V43.6293H166.731V42.5156H171.344C171.344 42.1245 171.265 41.7782 171.106 41.4766C170.947 41.1716 170.723 40.9313 170.435 40.7557C170.15 40.58 169.815 40.4922 169.43 40.4922C169.013 40.4922 168.648 40.5949 168.337 40.8004C168.028 41.0026 167.79 41.2678 167.621 41.5959C167.455 41.9207 167.372 42.2737 167.372 42.6548V43.5249C167.372 44.0353 167.462 44.4695 167.641 44.8274C167.823 45.1854 168.076 45.4588 168.401 45.6477C168.726 45.8333 169.106 45.9261 169.54 45.9261C169.821 45.9261 170.078 45.8864 170.31 45.8068C170.542 45.724 170.743 45.6013 170.912 45.4389C171.081 45.2765 171.21 45.076 171.3 44.8374L172.707 45.0909C172.594 45.5052 172.392 45.8681 172.1 46.1797C171.812 46.4879 171.449 46.7282 171.011 46.9006C170.577 47.0696 170.082 47.1541 169.525 47.1541Z" fill="white"/>
<path d="M26.0769 22.5H175C185.77 22.5 194.5 31.2304 194.5 42C194.5 52.7696 185.77 61.5 175 61.5H59.9231C53.8907 61.5 49.3934 61.4997 45.8162 61.237C42.244 60.9748 39.6288 60.4528 37.3553 59.4296C32.1191 57.073 27.927 52.8809 25.5704 47.6447C24.5472 45.3712 24.0252 42.756 23.763 39.1838C23.5003 35.6066 23.5 31.1093 23.5 25.0769C23.5 24.5675 23.5003 24.2123 23.5207 23.9349C23.5407 23.6625 23.5781 23.5046 23.6322 23.3844C23.7826 23.0502 24.0502 22.7826 24.3844 22.6322C24.5046 22.5781 24.6625 22.5407 24.9349 22.5207C25.2123 22.5003 25.5675 22.5 26.0769 22.5Z" stroke="url(#paint1_linear_108_6684)" style="mix-blend-mode:overlay"/>
</g>
<defs>
<filter id="filter0_d_108_6684" x="7.96814" y="4.15796" width="20.4646" height="22.477" filterUnits="userSpaceOnUse" color-interpolation-filters="sRGB">
<feFlood flood-opacity="0" result="BackgroundImageFix"/>
<feColorMatrix in="SourceAlpha" type="matrix" values="0 0 0 0 0 0 0 0 0 0 0 0 0 0 0 0 0 0 127 0" result="hardAlpha"/>
<feOffset dy="1"/>
<feGaussianBlur stdDeviation="1"/>
<feComposite in2="hardAlpha" operator="out"/>
<feColorMatrix type="matrix" values="0 0 0 0 0 0 0 0 0 0 0 0 0 0 0 0 0 0 0.25 0"/>
<feBlend mode="normal" in2="BackgroundImageFix" result="effect1_dropShadow_108_6684"/>
<feBlend mode="normal" in="SourceGraphic" in2="effect1_dropShadow_108_6684" result="shape"/>
</filter>
<filter id="filter1_bd_108_6684" x="0.296207" y="0.204359" width="217.408" height="85.4076" filterUnits="userSpaceOnUse" color-interpolation-filters="sRGB">
<feFlood flood-opacity="0" result="BackgroundImageFix"/>
<feGaussianBlur in="BackgroundImageFix" stdDeviation="2.72511"/>
<feComposite in2="SourceAlpha" operator="in" result="effect1_backgroundBlur_108_6684"/>
<feColorMatrix in="SourceAlpha" type="matrix" values="0 0 0 0 0 0 0 0 0 0 0 0 0 0 0 0 0 0 127 0" result="hardAlpha"/>
<feOffset dy="0.908152"/>
<feGaussianBlur stdDeviation="11.3519"/>
<feColorMatrix type="matrix" values="0 0 0 0 0.269263 0 0 0 0 0.166562 0 0 0 0 0.4875 0 0 0 0.1 0"/>
<feBlend mode="normal" in2="effect1_backgroundBlur_108_6684" result="effect2_dropShadow_108_6684"/>
<feBlend mode="normal" in="SourceGraphic" in2="effect2_dropShadow_108_6684" result="shape"/>
</filter>
<linearGradient id="paint0_linear_108_6684" x1="32.6561" y1="24.625" x2="205.737" y2="-25.3284" gradientUnits="userSpaceOnUse">
<stop stop-color="white" stop-opacity="0.97"/>
<stop offset="1" stop-color="white" stop-opacity="0.1"/>
</linearGradient>
<linearGradient id="paint1_linear_108_6684" x1="32.2615" y1="28.2085" x2="36.1088" y2="64.1958" gradientUnits="userSpaceOnUse">
<stop stop-color="white" stop-opacity="0.5"/>
<stop offset="0.352567" stop-color="white" stop-opacity="0"/>
<stop offset="0.646925" stop-color="white" stop-opacity="0"/>
<stop offset="1" stop-color="white" stop-opacity="0.54"/>
</linearGradient>
</defs>
</svg>
