<svg width="247" height="86" viewBox="0 0 247 86" fill="none" xmlns="http://www.w3.org/2000/svg">
<g filter="url(#filter0_bd_141_12570)">
<rect x="23" y="22" width="201" height="40" rx="20" fill="url(#paint0_linear_141_12570)" fill-opacity="0.5" style="mix-blend-mode:overlay"/>
<path d="M45.4659 36.8182V47H44.233V36.8182H45.4659ZM53.104 41.0739L52.0501 41.3722C51.9838 41.1965 51.886 41.0258 51.7567 40.8601C51.6308 40.6911 51.4584 40.5518 51.2397 40.4425C51.0209 40.3331 50.7409 40.2784 50.3995 40.2784C49.9322 40.2784 49.5427 40.3861 49.2312 40.6016C48.9229 40.8137 48.7688 41.0838 48.7688 41.4119C48.7688 41.7036 48.8749 41.9339 49.087 42.103C49.2991 42.272 49.6305 42.4129 50.0813 42.5256L51.2148 42.804C51.8976 42.9697 52.4064 43.2232 52.7411 43.5646C53.0759 43.9027 53.2432 44.3385 53.2432 44.8722C53.2432 45.3097 53.1173 45.7008 52.8654 46.0455C52.6168 46.3902 52.2688 46.6619 51.8214 46.8608C51.3739 47.0597 50.8536 47.1591 50.2603 47.1591C49.4814 47.1591 48.8368 46.9901 48.3263 46.652C47.8159 46.3139 47.4928 45.8201 47.3569 45.1705L48.4705 44.892C48.5766 45.303 48.7771 45.6113 49.0721 45.8168C49.3704 46.0223 49.7598 46.125 50.2404 46.125C50.7873 46.125 51.2215 46.009 51.543 45.777C51.8678 45.5417 52.0302 45.2599 52.0302 44.9318C52.0302 44.6667 51.9374 44.4446 51.7518 44.2656C51.5662 44.0833 51.2811 43.9474 50.8966 43.858L49.6239 43.5597C48.9246 43.3939 48.4109 43.1371 48.0827 42.7891C47.7579 42.4377 47.5955 41.9986 47.5955 41.4716C47.5955 41.0407 47.7165 40.6596 47.9584 40.3281C48.2037 39.9967 48.5368 39.7365 48.9577 39.5476C49.382 39.3587 49.8626 39.2642 50.3995 39.2642C51.1552 39.2642 51.7484 39.4299 52.1793 39.7614C52.6135 40.0928 52.9217 40.5303 53.104 41.0739ZM58.0277 47.1591C57.3118 47.1591 56.6953 46.9901 56.1782 46.652C55.6612 46.3139 55.2635 45.8482 54.9851 45.255C54.7066 44.6617 54.5674 43.9839 54.5674 43.2216C54.5674 42.446 54.71 41.7616 54.995 41.1683C55.2833 40.5717 55.6844 40.1061 56.1981 39.7713C56.7152 39.4332 57.3184 39.2642 58.0078 39.2642C58.5447 39.2642 59.0286 39.3636 59.4595 39.5625C59.8904 39.7614 60.2433 40.0398 60.5184 40.3977C60.7935 40.7557 60.9642 41.1733 61.0305 41.6506H59.8572C59.7677 41.3026 59.5689 40.9943 59.2606 40.7259C58.9557 40.4541 58.5447 40.3182 58.0277 40.3182C57.5703 40.3182 57.1692 40.4375 56.8245 40.6761C56.4832 40.9115 56.2164 41.2446 56.0241 41.6754C55.8352 42.103 55.7407 42.6051 55.7407 43.1818C55.7407 43.7718 55.8335 44.2855 56.0191 44.723C56.2081 45.1605 56.4732 45.5002 56.8146 45.7422C57.1593 45.9841 57.5637 46.1051 58.0277 46.1051C58.3326 46.1051 58.6093 46.0521 58.8579 45.946C59.1065 45.84 59.317 45.6875 59.4893 45.4886C59.6617 45.2898 59.7843 45.0511 59.8572 44.7727H61.0305C60.9642 45.2235 60.8002 45.6295 60.5383 45.9908C60.2798 46.3487 59.9368 46.6338 59.5092 46.8459C59.085 47.0547 58.5911 47.1591 58.0277 47.1591ZM62.6617 47V39.3636H63.7952V40.517H63.8748C64.014 40.1392 64.2659 39.8326 64.6305 39.5973C64.995 39.362 65.406 39.2443 65.8634 39.2443C65.9496 39.2443 66.0573 39.246 66.1866 39.2493C66.3158 39.2526 66.4136 39.2576 66.4799 39.2642V40.4574C66.4401 40.4474 66.349 40.4325 66.2065 40.4126C66.0672 40.3894 65.9198 40.3778 65.764 40.3778C65.3928 40.3778 65.0613 40.4557 64.7697 40.6115C64.4813 40.764 64.2526 40.9761 64.0836 41.2479C63.9179 41.5163 63.835 41.8229 63.835 42.1676V47H62.6617ZM67.7867 47V39.3636H68.96V47H67.7867ZM68.3833 38.0909C68.1546 38.0909 67.9574 38.013 67.7917 37.8572C67.6293 37.7015 67.5481 37.5142 67.5481 37.2955C67.5481 37.0767 67.6293 36.8894 67.7917 36.7337C67.9574 36.5779 68.1546 36.5 68.3833 36.5C68.612 36.5 68.8075 36.5779 68.9699 36.7337C69.1356 36.8894 69.2185 37.0767 69.2185 37.2955C69.2185 37.5142 69.1356 37.7015 68.9699 37.8572C68.8075 38.013 68.612 38.0909 68.3833 38.0909ZM74.346 39.3636V40.358H70.3886V39.3636H74.346ZM71.542 37.5341H72.7153V44.8125C72.7153 45.1439 72.7634 45.3925 72.8595 45.5582C72.9589 45.7206 73.0849 45.83 73.2373 45.8864C73.3931 45.9394 73.5572 45.9659 73.7295 45.9659C73.8588 45.9659 73.9648 45.9593 74.0477 45.946C74.1305 45.9295 74.1968 45.9162 74.2465 45.9062L74.4852 46.9602C74.4056 46.9901 74.2946 47.0199 74.1521 47.0497C74.0096 47.0829 73.8289 47.0994 73.6102 47.0994C73.2787 47.0994 72.9539 47.0282 72.6358 46.8857C72.3209 46.7431 72.059 46.526 71.8502 46.2344C71.6447 45.9427 71.542 45.5748 71.542 45.1307V37.5341ZM79.3479 39.3636V40.358H75.3905V39.3636H79.3479ZM76.5439 37.5341H77.7172V44.8125C77.7172 45.1439 77.7653 45.3925 77.8614 45.5582C77.9608 45.7206 78.0868 45.83 78.2393 45.8864C78.395 45.9394 78.5591 45.9659 78.7314 45.9659C78.8607 45.9659 78.9668 45.9593 79.0496 45.946C79.1325 45.9295 79.1988 45.9162 79.2485 45.9062L79.4871 46.9602C79.4076 46.9901 79.2965 47.0199 79.154 47.0497C79.0115 47.0829 78.8309 47.0994 78.6121 47.0994C78.2807 47.0994 77.9559 47.0282 77.6377 46.8857C77.3228 46.7431 77.061 46.526 76.8522 46.2344C76.6467 45.9427 76.5439 45.5748 76.5439 45.1307V37.5341ZM81.0288 47V39.3636H82.2021V47H81.0288ZM81.6254 38.0909C81.3967 38.0909 81.1995 38.013 81.0338 37.8572C80.8714 37.7015 80.7902 37.5142 80.7902 37.2955C80.7902 37.0767 80.8714 36.8894 81.0338 36.7337C81.1995 36.5779 81.3967 36.5 81.6254 36.5C81.8541 36.5 82.0497 36.5779 82.2121 36.7337C82.3778 36.8894 82.4606 37.0767 82.4606 37.2955C82.4606 37.5142 82.3778 37.7015 82.2121 37.8572C82.0497 38.013 81.8541 38.0909 81.6254 38.0909Z" fill="white"/>
<path d="M193.255 36.8182V47H191.102V38.8615H191.043L188.711 40.3232V38.4141L191.232 36.8182H193.255ZM199.583 47.2237C198.728 47.2204 197.992 47.0099 197.376 46.5923C196.763 46.1747 196.29 45.5698 195.959 44.7777C195.631 43.9856 195.468 43.0327 195.472 41.919C195.472 40.8087 195.636 39.8625 195.964 39.0803C196.295 38.2981 196.768 37.7031 197.381 37.2955C197.997 36.8845 198.731 36.679 199.583 36.679C200.435 36.679 201.167 36.8845 201.781 37.2955C202.397 37.7064 202.871 38.303 203.202 39.0852C203.534 39.8641 203.698 40.8087 203.695 41.919C203.695 43.036 203.529 43.9905 203.197 44.7827C202.869 45.5748 202.399 46.1797 201.785 46.5973C201.172 47.0149 200.438 47.2237 199.583 47.2237ZM199.583 45.4389C200.166 45.4389 200.632 45.1456 200.98 44.5589C201.328 43.9723 201.5 43.0923 201.497 41.919C201.497 41.1468 201.418 40.5038 201.259 39.9901C201.103 39.4763 200.881 39.0902 200.592 38.8317C200.307 38.5732 199.971 38.4439 199.583 38.4439C199.003 38.4439 198.539 38.7339 198.191 39.3139C197.843 39.8939 197.667 40.7623 197.664 41.919C197.664 42.7012 197.742 43.3542 197.898 43.8778C198.057 44.3982 198.281 44.7893 198.569 45.0511C198.857 45.3097 199.195 45.4389 199.583 45.4389Z" fill="white"/>
<rect x="23.5" y="22.5" width="200" height="39" rx="19.5" stroke="url(#paint1_linear_141_12570)" style="mix-blend-mode:overlay"/>
</g>
<defs>
<filter id="filter0_bd_141_12570" x="0.296207" y="0.204359" width="246.408" height="85.4076" filterUnits="userSpaceOnUse" color-interpolation-filters="sRGB">
<feFlood flood-opacity="0" result="BackgroundImageFix"/>
<feGaussianBlur in="BackgroundImageFix" stdDeviation="2.72511"/>
<feComposite in2="SourceAlpha" operator="in" result="effect1_backgroundBlur_141_12570"/>
<feColorMatrix in="SourceAlpha" type="matrix" values="0 0 0 0 0 0 0 0 0 0 0 0 0 0 0 0 0 0 127 0" result="hardAlpha"/>
<feOffset dy="0.908152"/>
<feGaussianBlur stdDeviation="11.3519"/>
<feColorMatrix type="matrix" values="0 0 0 0 0.269263 0 0 0 0 0.166562 0 0 0 0 0.4875 0 0 0 0.1 0"/>
<feBlend mode="normal" in2="effect1_backgroundBlur_141_12570" result="effect2_dropShadow_141_12570"/>
<feBlend mode="normal" in="SourceGraphic" in2="effect2_dropShadow_141_12570" result="shape"/>
</filter>
<linearGradient id="paint0_linear_141_12570" x1="34.2842" y1="24.625" x2="231.016" y2="-41.7277" gradientUnits="userSpaceOnUse">
<stop stop-color="white" stop-opacity="0.97"/>
<stop offset="1" stop-color="white" stop-opacity="0.1"/>
</linearGradient>
<linearGradient id="paint1_linear_141_12570" x1="33.8231" y1="28.2085" x2="37.1252" y2="64.305" gradientUnits="userSpaceOnUse">
<stop stop-color="white" stop-opacity="0.5"/>
<stop offset="0.352567" stop-color="white" stop-opacity="0"/>
<stop offset="0.646925" stop-color="white" stop-opacity="0"/>
<stop offset="1" stop-color="white" stop-opacity="0.54"/>
</linearGradient>
</defs>
</svg>
